{"glyphs":{"0":{"ha":1017,"x_min":0,"x_max":0,"o":"m 508 -29 b 57 494 242 -29 57 188 b 508 1018 57 801 242 1018 b 958 494 775 1018 958 801 b 508 -29 958 188 775 -29 m 508 165 b 731 494 642 165 731 300 b 508 824 731 689 642 824 b 285 494 374 824 285 689 b 508 165 285 300 374 165 "},"1":{"ha":740,"x_min":0,"x_max":0,"o":"m 28 182 l 288 182 l 288 733 l 286 733 b 117 611 253 681 192 640 l 46 807 b 303 989 167 840 253 900 l 515 989 l 515 182 l 726 182 l 726 0 l 28 0 "},"2":{"ha":858,"x_min":0,"x_max":0,"o":"m 451 1018 b 801 700 654 1018 801 885 b 507 382 801 508 647 440 b 286 203 379 326 286 293 l 286 169 l 803 169 l 803 0 l 51 0 l 53 163 b 386 519 53 400 239 457 b 568 706 485 561 568 606 b 443 829 568 782 517 829 b 294 629 361 829 297 761 l 71 669 b 451 1018 82 875 242 1018 "},"3":{"ha":879,"x_min":0,"x_max":0,"o":"m 443 -29 b 32 304 213 -29 51 107 l 249 356 b 433 160 260 239 328 160 b 590 300 525 160 590 215 b 453 447 590 389 518 444 l 388 450 l 388 574 l 442 576 b 557 713 513 581 557 640 b 440 836 557 789 507 836 b 299 660 361 836 301 765 l 74 694 b 442 1013 82 882 231 1013 b 774 739 636 1013 774 903 b 646 526 774 644 725 561 l 646 524 b 829 276 763 481 829 392 b 443 -29 829 97 667 -29 "},"4":{"ha":885,"x_min":0,"x_max":0,"o":"m 506 204 l 22 204 l 22 332 l 444 989 l 728 989 l 728 368 l 843 368 l 843 204 l 728 204 l 728 0 l 506 0 m 506 368 l 506 782 l 504 782 l 240 368 "},"5":{"ha":882,"x_min":0,"x_max":0,"o":"m 440 -29 b 22 281 214 -29 42 96 l 253 326 b 439 160 264 226 339 160 b 613 325 543 160 614 226 b 443 504 613 432 544 504 b 308 438 389 504 333 478 l 117 472 l 149 989 l 749 989 l 749 813 l 349 813 l 333 604 b 517 658 374 639 446 658 b 847 322 711 658 847 521 b 440 -29 847 111 679 -29 "},"6":{"ha":911,"x_min":0,"x_max":0,"o":"m 463 1019 b 833 699 686 1019 806 897 l 625 671 b 464 843 606 775 564 843 b 281 557 350 843 282 742 b 525 651 339 619 417 651 b 860 326 713 651 860 518 b 454 -25 858 118 693 -25 b 57 431 219 -25 57 110 b 463 1019 57 765 154 1019 m 461 497 b 292 333 363 497 292 432 b 461 164 292 232 363 164 b 626 333 557 164 626 233 b 461 497 626 431 557 497 "},"7":{"ha":744,"x_min":0,"x_max":0,"o":"m 143 0 b 489 801 176 283 294 561 l 28 801 l 28 989 l 724 989 l 724 826 b 399 0 526 567 429 290 l 143 0 "},"8":{"ha":879,"x_min":0,"x_max":0,"o":"m 440 -25 b 42 282 204 -25 42 94 b 236 528 42 400 118 503 b 92 746 151 557 92 651 b 440 1021 92 913 238 1021 b 788 747 640 1021 788 915 b 642 526 788 651 726 557 b 838 281 760 503 838 400 b 440 -25 838 93 675 -25 m 440 588 b 571 717 515 588 571 643 b 440 843 571 789 515 843 b 308 717 363 843 308 789 b 440 588 308 643 363 588 m 440 154 b 604 296 535 154 604 214 b 440 438 604 376 533 438 b 275 296 344 438 275 376 b 440 154 275 214 344 154 "},"9":{"ha":940,"x_min":0,"x_max":0,"o":"m 447 -25 b 36 296 211 -25 64 97 l 244 322 b 444 144 258 215 329 144 b 660 438 576 144 658 251 b 415 342 601 375 524 342 b 81 667 228 342 81 476 b 486 1018 82 876 247 1018 b 883 556 721 1018 883 885 b 447 -25 883 229 774 -25 m 479 497 b 650 660 578 496 650 563 b 479 831 650 761 578 831 b 314 660 383 829 314 756 b 479 497 314 563 383 497 "},"\u0000":{"ha":1064,"x_min":0,"x_max":0,"o":"m 129 989 l 936 989 l 936 0 l 129 0 m 751 158 l 751 831 l 313 831 l 313 158 "},"\r":{"ha":60,"x_min":0,"x_max":0,"o":""}," ":{"ha":315,"x_min":0,"x_max":0,"o":""},"A":{"ha":1018,"x_min":0,"x_max":0,"o":"m 368 989 l 651 989 l 1010 0 l 765 0 l 700 196 l 318 196 l 253 0 l 8 0 m 656 365 l 511 800 l 508 800 l 363 365 "},"B":{"ha":981,"x_min":0,"x_max":0,"o":"m 78 989 l 579 989 b 924 717 778 989 924 875 b 761 507 924 619 861 533 l 761 504 b 946 276 872 482 946 385 b 590 0 946 115 796 0 l 78 0 m 538 581 b 690 697 628 581 690 631 b 538 813 690 765 628 813 l 311 813 l 311 581 m 543 176 b 713 299 642 176 713 228 b 543 425 713 374 642 425 l 311 425 l 311 176 "},"C":{"ha":1115,"x_min":0,"x_max":0,"o":"m 578 -35 b 43 494 263 -35 43 182 b 551 1024 43 807 251 1024 b 1017 671 800 1024 971 879 l 801 617 b 553 824 769 739 685 824 b 276 494 390 824 276 688 b 581 165 278 301 401 165 b 856 383 714 165 824 251 l 1071 333 b 578 -35 1025 113 829 -35 "},"D":{"ha":1061,"x_min":0,"x_max":0,"o":"m 78 989 l 456 989 b 1019 494 800 989 1019 797 b 456 0 1019 192 800 0 l 78 0 m 456 188 b 786 494 656 188 786 304 b 456 801 786 685 656 801 l 306 801 l 306 188 "},"E":{"ha":818,"x_min":0,"x_max":0,"o":"m 78 989 l 772 989 l 772 801 l 303 801 l 303 590 l 717 590 l 717 422 l 303 422 l 303 188 l 786 188 l 786 0 l 78 0 "},"F":{"ha":776,"x_min":0,"x_max":0,"o":"m 78 989 l 753 989 l 753 789 l 311 789 l 311 556 l 669 556 l 669 375 l 311 375 l 311 0 l 78 0 "},"G":{"ha":1163,"x_min":0,"x_max":0,"o":"m 533 -32 b 43 494 244 -32 43 183 b 565 1024 43 807 256 1024 b 1010 706 779 1024 958 893 l 794 658 b 563 824 763 756 668 824 b 276 494 393 824 276 689 b 592 160 276 297 407 160 b 879 408 749 160 874 265 l 482 408 l 482 561 l 1107 561 l 1107 0 l 935 0 l 911 174 l 910 174 b 533 -32 842 44 701 -32 "},"H":{"ha":1031,"x_min":0,"x_max":0,"o":"m 78 989 l 311 989 l 311 607 l 719 607 l 719 989 l 953 989 l 953 0 l 719 0 l 719 418 l 311 418 l 311 0 l 78 0 "},"I":{"ha":389,"x_min":0,"x_max":0,"o":"m 78 989 l 311 989 l 311 0 l 78 0 "},"J":{"ha":817,"x_min":0,"x_max":0,"o":"m 401 -28 b 22 260 197 -28 51 86 l 222 329 b 389 160 239 228 308 160 b 519 314 467 160 519 222 l 519 989 l 754 989 l 754 299 b 401 -28 754 101 615 -28 "},"K":{"ha":938,"x_min":0,"x_max":0,"o":"m 78 989 l 311 989 l 311 607 l 313 607 l 632 989 l 914 989 l 574 607 l 931 0 l 651 0 l 417 435 l 311 321 l 311 0 l 78 0 "},"L":{"ha":744,"x_min":0,"x_max":0,"o":"m 78 989 l 311 989 l 311 200 l 725 200 l 725 0 l 78 0 "},"M":{"ha":1344,"x_min":0,"x_max":0,"o":"m 78 989 l 383 989 l 671 260 l 674 260 l 963 989 l 1267 989 l 1267 0 l 1051 0 l 1051 692 l 1049 692 l 769 0 l 575 0 l 296 690 l 293 690 l 293 0 l 78 0 "},"N":{"ha":1056,"x_min":0,"x_max":0,"o":"m 78 989 l 351 989 l 754 285 l 757 285 l 757 989 l 978 989 l 978 0 l 704 0 l 301 704 l 299 704 l 299 0 l 78 0 "},"O":{"ha":1181,"x_min":0,"x_max":0,"o":"m 590 -35 b 43 494 258 -35 43 175 b 590 1024 43 814 258 1024 b 1138 494 921 1024 1138 814 b 590 -35 1138 175 921 -35 m 590 165 b 904 494 781 165 904 296 b 590 824 904 693 781 824 b 276 494 400 824 276 693 b 590 165 276 296 400 165 "},"P":{"ha":949,"x_min":0,"x_max":0,"o":"m 78 989 l 538 989 b 921 661 721 989 921 878 b 535 335 921 472 758 335 l 308 335 l 308 0 l 78 0 m 499 511 b 688 661 608 511 688 574 b 499 813 688 750 610 813 l 308 813 l 308 511 "},"Q":{"ha":1181,"x_min":0,"x_max":0,"o":"m 949 -40 b 1065 6 997 -40 1033 -17 l 1136 -107 b 933 -178 1083 -151 1018 -178 b 689 -28 821 -178 731 -119 b 590 -35 657 -32 625 -35 b 43 494 258 -35 43 175 b 590 1024 43 814 258 1024 b 1138 494 921 1024 1138 814 b 853 18 1138 271 1031 100 b 949 -40 871 -15 907 -40 m 276 494 b 590 165 276 296 400 165 b 904 494 781 165 904 296 b 590 824 904 693 781 824 b 276 494 400 824 276 693 "},"R":{"ha":988,"x_min":0,"x_max":0,"o":"m 78 989 l 557 989 b 946 678 786 989 946 861 b 721 415 946 544 857 450 l 933 0 l 679 0 l 499 374 l 311 374 l 311 0 l 78 0 m 538 539 b 713 675 635 539 713 593 b 538 813 713 757 635 813 l 311 813 l 311 539 "},"S":{"ha":928,"x_min":0,"x_max":0,"o":"m 481 -35 b 31 301 236 -35 51 89 l 244 340 b 489 142 256 222 357 142 b 678 272 606 142 678 199 b 514 392 678 332 629 367 l 376 418 b 67 703 163 460 67 547 b 457 1024 67 897 229 1024 b 844 740 663 1024 819 911 l 635 693 b 454 847 625 786 551 847 b 296 726 357 847 296 796 b 442 613 296 667 340 632 l 581 586 b 906 299 803 549 906 457 b 481 -35 906 93 732 -35 "},"T":{"ha":868,"x_min":0,"x_max":0,"o":"m 317 789 l 19 789 l 19 989 l 847 989 l 847 789 l 550 789 l 550 0 l 317 0 "},"U":{"ha":1019,"x_min":0,"x_max":0,"o":"m 510 -35 b 67 390 242 -35 67 135 l 67 989 l 300 989 l 300 396 b 510 165 300 269 382 165 b 719 397 636 165 719 260 l 719 989 l 953 989 l 953 390 b 510 -35 953 135 778 -35 "},"V":{"ha":1007,"x_min":0,"x_max":0,"o":"m 8 989 l 250 989 l 503 211 l 506 211 l 756 989 l 999 989 l 638 0 l 369 0 "},"W":{"ha":1564,"x_min":0,"x_max":0,"o":"m 8 989 l 244 989 l 446 219 l 449 219 l 633 989 l 932 989 l 1118 219 l 1121 219 l 1318 989 l 1556 989 l 1272 0 l 967 0 l 785 763 l 782 763 l 597 0 l 292 0 "},"X":{"ha":1024,"x_min":0,"x_max":0,"o":"m 347 519 l 17 989 l 288 989 l 507 656 l 732 989 l 1007 989 l 668 519 l 1015 0 l 742 0 l 507 358 l 279 0 l 8 0 "},"Y":{"ha":943,"x_min":0,"x_max":0,"o":"m 357 344 l 8 989 l 256 989 l 475 550 l 476 550 l 685 989 l 935 989 l 592 344 l 592 0 l 357 0 "},"Z":{"ha":865,"x_min":0,"x_max":0,"o":"m 32 204 l 561 806 l 46 806 l 46 989 l 819 989 l 819 782 l 292 183 l 833 183 l 833 0 l 32 0 "},"a":{"ha":878,"x_min":0,"x_max":0,"o":"m 281 -22 b 22 186 129 -22 22 63 b 332 419 22 308 128 399 l 474 435 b 532 490 508 439 532 458 b 400 583 532 543 481 583 b 242 454 311 583 250 521 l 42 492 b 396 739 54 632 193 739 b 738 457 604 739 738 628 l 738 174 b 771 126 738 144 750 126 b 822 158 786 126 808 139 l 878 46 b 697 -22 836 3 763 -22 b 538 96 611 -22 547 32 l 535 113 l 533 113 b 281 -22 486 32 396 -22 m 357 126 b 529 288 457 126 529 194 l 529 318 l 382 303 b 231 208 272 292 231 253 b 357 126 231 160 285 126 "},"b":{"ha":863,"x_min":0,"x_max":0,"o":"m 508 -22 b 264 125 401 -22 317 29 l 263 125 l 232 0 l 57 0 l 57 1031 l 267 1031 l 267 586 l 268 586 b 510 733 321 683 404 733 b 831 356 697 733 831 581 b 508 -22 831 131 697 -22 m 440 156 b 622 356 544 156 622 242 b 440 554 622 468 546 554 b 257 356 335 554 257 468 b 440 156 257 243 335 156 "},"c":{"ha":814,"x_min":0,"x_max":0,"o":"m 417 -28 b 32 356 189 -28 32 129 b 403 739 32 582 183 739 b 747 485 576 739 715 636 l 557 439 b 407 568 539 521 476 568 b 242 356 313 568 240 482 b 422 143 242 229 319 143 b 589 276 500 143 563 194 l 783 247 b 417 -28 746 78 606 -28 "},"d":{"ha":863,"x_min":0,"x_max":0,"o":"m 354 -22 b 32 356 167 -22 32 131 b 354 733 32 581 165 733 b 596 586 458 733 543 683 l 597 586 l 597 1031 l 806 1031 l 806 0 l 632 0 l 600 125 l 599 125 b 354 -22 546 29 461 -22 m 424 156 b 606 356 529 156 606 243 b 424 554 606 468 529 554 b 242 356 318 554 242 468 b 424 156 242 242 318 156 "},"e":{"ha":825,"x_min":0,"x_max":0,"o":"m 454 -28 b 32 361 207 -28 32 132 b 415 739 32 585 189 739 b 782 376 638 739 782 590 b 774 297 782 349 779 319 l 247 297 b 463 129 261 194 346 129 b 672 225 551 129 632 168 l 797 136 b 454 -28 743 39 610 -28 m 569 422 b 415 586 561 528 503 586 b 247 422 326 586 261 519 "},"f":{"ha":668,"x_min":0,"x_max":0,"o":"m 140 553 l 6 553 l 6 711 l 140 711 l 140 794 b 415 1058 140 954 247 1058 b 668 926 526 1058 621 1004 l 589 801 b 454 890 563 854 510 890 b 350 775 392 890 350 844 l 350 711 l 610 711 l 610 553 l 350 553 l 350 0 l 142 0 "},"g":{"ha":854,"x_min":0,"x_max":0,"o":"m 367 -319 b -3 -182 218 -319 72 -265 l 79 -29 b 350 -144 139 -99 246 -144 b 589 74 494 -144 589 -58 l 589 125 l 588 125 b 347 4 536 53 442 4 b 32 365 157 4 32 147 b 342 732 32 588 156 732 b 589 586 442 732 540 674 l 590 586 l 621 711 l 797 711 l 797 68 b 367 -319 797 -167 628 -319 m 419 175 b 597 365 526 175 597 256 b 419 561 597 478 526 561 b 240 365 313 561 240 483 b 419 175 240 251 313 175 "},"h":{"ha":808,"x_min":0,"x_max":0,"o":"m 57 1031 l 267 1031 l 267 590 l 268 590 b 518 733 321 681 406 733 b 754 485 665 733 754 640 l 754 0 l 546 0 l 546 425 b 425 558 546 507 499 558 b 267 392 333 558 267 492 l 267 0 l 57 0 "},"i":{"ha":338,"x_min":0,"x_max":0,"o":"m 168 810 b 43 932 93 810 43 858 b 168 1053 43 1004 93 1053 b 294 932 243 1053 294 1004 b 168 810 294 858 243 810 m 63 711 l 271 711 l 271 0 l 63 0 "},"j":{"ha":340,"x_min":0,"x_max":0,"o":"m 171 810 b 46 932 96 810 46 860 b 171 1053 46 1004 96 1053 b 296 932 244 1053 296 1004 b 171 810 296 860 244 810 m 18 -319 b -139 -296 -40 -319 -99 -311 l -118 -147 b -37 -160 -90 -157 -61 -160 b 67 -43 28 -160 67 -117 l 67 711 l 275 711 l 275 -72 b 18 -319 275 -226 179 -319 "},"k":{"ha":763,"x_min":0,"x_max":0,"o":"m 57 1031 l 267 1031 l 267 451 l 268 451 l 501 711 l 746 711 l 482 436 l 763 0 l 529 0 l 346 306 l 267 221 l 267 0 l 57 0 "},"l":{"ha":324,"x_min":0,"x_max":0,"o":"m 57 1031 l 267 1031 l 267 0 l 57 0 "},"m":{"ha":1253,"x_min":0,"x_max":0,"o":"m 57 711 l 225 711 l 257 590 l 258 590 b 500 733 299 679 390 733 b 715 585 608 733 682 682 l 717 585 b 972 733 775 686 867 733 b 1199 476 1115 733 1199 638 l 1199 0 l 990 0 l 990 433 b 874 556 990 510 947 556 b 732 390 785 556 732 486 l 732 0 l 524 0 l 524 433 b 407 556 524 510 481 556 b 267 390 318 556 267 486 l 267 0 l 57 0 "},"n":{"ha":808,"x_min":0,"x_max":0,"o":"m 518 733 b 754 485 665 733 754 640 l 754 0 l 546 0 l 546 425 b 425 558 546 507 499 558 b 267 392 333 558 267 492 l 267 0 l 57 0 l 57 711 l 233 711 l 265 590 l 267 590 b 518 733 321 681 406 733 "},"o":{"ha":854,"x_min":0,"x_max":0,"o":"m 428 -28 b 32 356 189 -28 32 124 b 428 739 32 588 189 739 b 822 356 665 739 822 588 b 428 -28 822 124 665 -28 m 428 147 b 617 356 543 147 617 228 b 428 565 617 483 543 565 b 239 356 311 565 239 483 b 428 147 239 228 311 147 "},"p":{"ha":863,"x_min":0,"x_max":0,"o":"m 57 711 l 232 711 l 263 586 l 264 586 b 508 733 317 682 401 733 b 831 356 697 733 831 581 b 510 -22 831 131 697 -22 b 268 125 404 -22 321 28 l 267 125 l 267 -292 l 57 -292 m 440 157 b 622 356 546 157 622 243 b 440 556 622 469 544 556 b 257 356 335 556 257 468 b 440 157 257 243 335 157 "},"q":{"ha":863,"x_min":0,"x_max":0,"o":"m 597 125 l 596 125 b 354 -22 543 28 458 -22 b 32 356 165 -22 32 131 b 354 733 32 581 167 733 b 599 586 461 733 546 682 l 600 586 l 632 711 l 806 711 l 806 -292 l 597 -292 m 424 157 b 606 356 529 157 606 243 b 424 556 606 468 529 556 b 242 356 318 556 242 469 b 424 157 242 243 318 157 "},"r":{"ha":704,"x_min":0,"x_max":0,"o":"m 457 733 b 683 489 582 733 667 643 l 507 440 b 399 574 500 524 460 574 b 267 381 315 574 267 503 l 267 0 l 57 0 l 57 711 l 224 711 l 256 597 l 257 597 b 457 733 294 683 369 733 "},"s":{"ha":747,"x_min":0,"x_max":0,"o":"m 378 -25 b 25 224 185 -25 35 61 l 210 244 b 389 118 217 168 290 118 b 535 201 469 118 535 153 b 390 282 535 242 490 267 l 281 299 b 57 503 124 325 57 386 b 363 736 58 647 182 736 b 678 526 532 736 660 651 l 499 497 b 356 597 493 558 435 597 b 239 521 289 597 239 563 b 358 450 238 486 274 465 l 467 432 b 722 217 646 400 722 336 b 378 -25 722 71 581 -25 "},"t":{"ha":692,"x_min":0,"x_max":0,"o":"m 418 -28 b 142 232 249 -28 142 75 l 142 553 l 7 553 l 7 711 l 142 711 l 142 907 l 351 953 l 350 711 l 639 711 l 639 553 l 350 553 l 351 265 b 461 140 351 188 399 140 b 607 242 525 140 575 175 l 681 118 b 418 -28 635 26 525 -28 "},"u":{"ha":808,"x_min":0,"x_max":0,"o":"m 290 -22 b 54 226 143 -22 54 71 l 54 711 l 263 711 l 263 286 b 383 153 263 204 310 153 b 542 319 475 153 542 219 l 542 711 l 751 711 l 751 0 l 575 0 l 543 121 l 542 121 b 290 -22 488 31 403 -22 "},"v":{"ha":811,"x_min":0,"x_max":0,"o":"m 8 711 l 224 711 l 406 171 l 407 171 l 588 711 l 803 711 l 532 0 l 275 0 "},"w":{"ha":1239,"x_min":0,"x_max":0,"o":"m 8 711 l 218 711 l 356 190 l 357 190 l 519 711 l 719 711 l 883 186 l 885 186 l 1021 711 l 1231 711 l 1014 0 l 774 0 l 621 499 l 618 499 l 468 0 l 228 0 "},"x":{"ha":817,"x_min":0,"x_max":0,"o":"m 264 369 l 19 711 l 258 711 l 408 479 l 558 711 l 797 711 l 551 369 l 808 0 l 564 0 l 408 243 l 251 0 l 8 0 "},"y":{"ha":811,"x_min":0,"x_max":0,"o":"m 339 -319 b -15 -182 186 -319 54 -268 l 72 -35 b 322 -144 129 -104 222 -144 b 546 50 460 -144 546 -71 l 546 103 l 544 103 b 321 -32 499 19 414 -32 b 56 251 157 -32 56 82 l 56 711 l 265 711 l 265 285 b 394 140 265 199 313 140 b 544 296 478 140 544 204 l 544 711 l 753 711 l 754 44 b 339 -319 754 -181 590 -319 "},"z":{"ha":724,"x_min":0,"x_max":0,"o":"m 31 183 l 439 551 l 44 551 l 44 711 l 678 711 l 678 528 l 269 160 l 692 160 l 692 0 l 31 0 "},"À":{"ha":1018,"x_min":0,"x_max":0,"o":"m 382 1256 l 425 1290 l 557 1117 l 514 1082 m 368 989 l 651 989 l 1010 0 l 765 0 l 700 196 l 318 196 l 253 0 l 8 0 m 656 365 l 511 800 l 508 800 l 363 365 "},"à":{"ha":878,"x_min":0,"x_max":0,"o":"m 243 1035 l 288 1069 l 447 868 l 404 833 m 281 -22 b 22 186 129 -22 22 63 b 332 419 22 308 128 399 l 474 435 b 532 490 508 439 532 458 b 400 583 532 543 481 583 b 242 454 311 583 250 521 l 42 492 b 396 739 54 632 193 739 b 738 457 604 739 738 628 l 738 174 b 771 126 738 144 750 126 b 822 158 786 126 808 139 l 878 46 b 697 -22 836 3 763 -22 b 538 96 611 -22 547 32 l 535 113 l 533 113 b 281 -22 486 32 396 -22 m 357 126 b 529 288 457 126 529 194 l 529 318 l 382 303 b 231 208 272 292 231 253 b 357 126 231 160 285 126 "},"Á":{"ha":1018,"x_min":0,"x_max":0,"o":"m 481 1117 l 613 1290 l 656 1256 l 524 1082 m 368 989 l 651 989 l 1010 0 l 765 0 l 700 196 l 318 196 l 253 0 l 8 0 m 656 365 l 511 800 l 508 800 l 363 365 "},"á":{"ha":878,"x_min":0,"x_max":0,"o":"m 364 868 l 524 1069 l 568 1035 l 407 833 m 281 -22 b 22 186 129 -22 22 63 b 332 419 22 308 128 399 l 474 435 b 532 490 508 439 532 458 b 400 583 532 543 481 583 b 242 454 311 583 250 521 l 42 492 b 396 739 54 632 193 739 b 738 457 604 739 738 628 l 738 174 b 771 126 738 144 750 126 b 822 158 786 126 808 139 l 878 46 b 697 -22 836 3 763 -22 b 538 96 611 -22 547 32 l 535 113 l 533 113 b 281 -22 486 32 396 -22 m 357 126 b 529 288 457 126 529 194 l 529 318 l 382 303 b 231 208 272 292 231 253 b 357 126 231 160 285 126 "},"Ã":{"ha":1018,"x_min":0,"x_max":0,"o":"m 617 1083 b 483 1169 554 1083 517 1131 b 400 1226 457 1200 432 1226 b 322 1097 354 1226 322 1172 l 267 1097 b 401 1282 267 1204 321 1282 b 529 1201 461 1282 496 1240 b 615 1139 556 1168 581 1139 b 696 1269 663 1139 696 1193 l 753 1269 b 617 1083 753 1161 696 1083 m 368 989 l 651 989 l 1010 0 l 765 0 l 700 196 l 318 196 l 253 0 l 8 0 m 656 365 l 511 800 l 508 800 l 363 365 "},"ã":{"ha":878,"x_min":0,"x_max":0,"o":"m 504 819 b 381 894 449 819 413 858 b 288 963 351 929 324 963 b 210 833 242 963 210 908 l 154 833 b 289 1018 154 940 208 1018 b 410 946 344 1018 379 982 b 504 875 440 911 467 875 b 585 1006 551 875 585 929 l 640 1006 b 504 819 640 897 583 819 m 281 -22 b 22 186 129 -22 22 63 b 332 419 22 308 128 399 l 474 435 b 532 490 508 439 532 458 b 400 583 532 543 481 583 b 242 454 311 583 250 521 l 42 492 b 396 739 54 632 193 739 b 738 457 604 739 738 628 l 738 174 b 771 126 738 144 750 126 b 822 158 786 126 808 139 l 878 46 b 697 -22 836 3 763 -22 b 538 96 611 -22 547 32 l 535 113 l 533 113 b 281 -22 486 32 396 -22 m 357 126 b 529 288 457 126 529 194 l 529 318 l 382 303 b 231 208 272 292 231 253 b 357 126 231 160 285 126 "},"Ä":{"ha":1018,"x_min":0,"x_max":0,"o":"m 332 1093 b 219 1206 267 1093 219 1139 b 332 1317 219 1269 267 1317 b 446 1206 397 1317 446 1269 b 332 1093 446 1139 397 1093 m 685 1093 b 572 1206 619 1093 572 1139 b 685 1317 572 1269 619 1317 b 797 1206 750 1317 797 1269 b 685 1093 797 1139 750 1093 m 368 989 l 651 989 l 1010 0 l 765 0 l 700 196 l 318 196 l 253 0 l 8 0 m 656 365 l 511 800 l 508 800 l 363 365 "},"ä":{"ha":878,"x_min":0,"x_max":0,"o":"m 224 824 b 110 933 158 824 110 869 b 224 1040 110 996 158 1040 b 336 933 289 1040 336 996 b 224 824 336 869 289 824 m 576 824 b 464 933 511 824 464 869 b 576 1040 464 996 511 1040 b 689 933 642 1040 689 996 b 576 824 689 869 642 824 m 281 -22 b 22 186 129 -22 22 63 b 332 419 22 308 128 399 l 474 435 b 532 490 508 439 532 458 b 400 583 532 543 481 583 b 242 454 311 583 250 521 l 42 492 b 396 739 54 632 193 739 b 738 457 604 739 738 628 l 738 174 b 771 126 738 144 750 126 b 822 158 786 126 808 139 l 878 46 b 697 -22 836 3 763 -22 b 538 96 611 -22 547 32 l 535 113 l 533 113 b 281 -22 486 32 396 -22 m 357 126 b 529 288 457 126 529 194 l 529 318 l 382 303 b 231 208 272 292 231 253 b 357 126 231 160 285 126 "},"Å":{"ha":1018,"x_min":0,"x_max":0,"o":"m 508 1083 b 376 1215 432 1083 376 1139 b 508 1347 375 1292 431 1347 b 640 1215 585 1347 639 1292 b 508 1083 640 1139 585 1083 m 507 1139 b 583 1215 551 1139 583 1171 b 507 1292 583 1260 551 1292 b 431 1215 463 1292 431 1260 b 507 1139 431 1171 463 1139 m 368 989 l 651 989 l 1010 0 l 765 0 l 700 196 l 318 196 l 253 0 l 8 0 m 656 365 l 511 800 l 508 800 l 363 365 "},"å":{"ha":878,"x_min":0,"x_max":0,"o":"m 400 819 b 268 951 324 819 268 875 b 400 1083 268 1028 324 1083 b 532 951 476 1083 532 1028 b 400 819 532 875 478 819 m 399 875 b 475 951 444 875 475 907 b 399 1028 475 996 444 1028 b 322 951 356 1028 322 996 b 399 875 322 907 356 875 m 281 -22 b 22 186 129 -22 22 63 b 332 419 22 308 128 399 l 474 435 b 532 490 508 439 532 458 b 400 583 532 543 481 583 b 242 454 311 583 250 521 l 42 492 b 396 739 54 632 193 739 b 738 457 604 739 738 628 l 738 174 b 771 126 738 144 750 126 b 822 158 786 126 808 139 l 878 46 b 697 -22 836 3 763 -22 b 538 96 611 -22 547 32 l 535 113 l 533 113 b 281 -22 486 32 396 -22 m 357 126 b 529 288 457 126 529 194 l 529 318 l 382 303 b 231 208 272 292 231 253 b 357 126 231 160 285 126 "},"Ā":{"ha":1018,"x_min":0,"x_max":0,"o":"m 286 1161 l 732 1161 l 732 1106 l 286 1106 m 368 989 l 651 989 l 1010 0 l 765 0 l 700 196 l 318 196 l 253 0 l 8 0 m 656 365 l 511 800 l 508 800 l 363 365 "},"ā":{"ha":878,"x_min":0,"x_max":0,"o":"m 176 883 l 622 883 l 622 828 l 176 828 m 281 -22 b 22 186 129 -22 22 63 b 332 419 22 308 128 399 l 474 435 b 532 490 508 439 532 458 b 400 583 532 543 481 583 b 242 454 311 583 250 521 l 42 492 b 396 739 54 632 193 739 b 738 457 604 739 738 628 l 738 174 b 771 126 738 144 750 126 b 822 158 786 126 808 139 l 878 46 b 697 -22 836 3 763 -22 b 538 96 611 -22 547 32 l 535 113 l 533 113 b 281 -22 486 32 396 -22 m 357 126 b 529 288 457 126 529 194 l 529 318 l 382 303 b 231 208 272 292 231 253 b 357 126 231 160 285 126 "},"Ă":{"ha":1018,"x_min":0,"x_max":0,"o":"m 508 1097 b 314 1278 396 1097 314 1172 l 371 1278 b 508 1153 371 1206 428 1153 b 649 1278 589 1153 649 1206 l 703 1278 b 508 1097 703 1174 622 1097 m 368 989 l 651 989 l 1010 0 l 765 0 l 700 196 l 318 196 l 253 0 l 8 0 m 656 365 l 511 800 l 508 800 l 363 365 "},"ă":{"ha":878,"x_min":0,"x_max":0,"o":"m 399 819 b 163 1042 261 819 163 913 l 219 1042 b 397 875 219 944 294 875 b 581 1042 503 875 581 944 l 635 1042 b 399 819 635 913 536 819 m 281 -22 b 22 186 129 -22 22 63 b 332 419 22 308 128 399 l 474 435 b 532 490 508 439 532 458 b 400 583 532 543 481 583 b 242 454 311 583 250 521 l 42 492 b 396 739 54 632 193 739 b 738 457 604 739 738 628 l 738 174 b 771 126 738 144 750 126 b 822 158 786 126 808 139 l 878 46 b 697 -22 836 3 763 -22 b 538 96 611 -22 547 32 l 535 113 l 533 113 b 281 -22 486 32 396 -22 m 357 126 b 529 288 457 126 529 194 l 529 318 l 382 303 b 231 208 272 292 231 253 b 357 126 231 160 285 126 "},"Ą":{"ha":1018,"x_min":0,"x_max":0,"o":"m 974 0 b 744 -165 835 -49 744 -86 b 813 -229 744 -204 771 -229 b 908 -179 842 -229 879 -210 l 947 -215 b 810 -285 911 -258 856 -285 b 688 -174 738 -285 689 -240 b 836 0 686 -94 742 -43 l 765 0 l 700 196 l 318 196 l 253 0 l 8 0 l 368 989 l 651 989 l 1010 0 l 974 0 m 656 365 l 511 800 l 508 800 l 363 365 "},"ą":{"ha":878,"x_min":0,"x_max":0,"o":"m 758 -15 b 572 -165 644 -57 572 -94 b 640 -229 572 -204 599 -229 b 736 -179 669 -229 707 -210 l 775 -215 b 638 -285 739 -258 683 -285 b 515 -174 565 -285 517 -240 b 638 -12 514 -103 558 -53 b 538 96 582 6 544 49 l 535 113 l 533 113 b 281 -22 486 32 396 -22 b 22 186 129 -22 22 63 b 332 419 22 308 128 399 l 474 435 b 532 490 508 439 532 458 b 400 583 532 543 481 583 b 242 454 311 583 250 521 l 42 492 b 396 739 54 632 193 739 b 738 457 604 739 738 628 l 738 174 b 771 126 738 144 750 126 b 822 158 786 126 808 139 l 878 46 b 758 -15 849 15 804 -6 m 529 318 l 382 303 b 231 208 272 292 231 253 b 357 126 231 160 285 126 b 529 288 457 126 529 194 "},"Â":{"ha":1018,"x_min":0,"x_max":0,"o":"m 294 1125 l 471 1278 l 546 1278 l 722 1125 l 686 1083 l 507 1236 l 332 1083 m 368 989 l 651 989 l 1010 0 l 765 0 l 700 196 l 318 196 l 253 0 l 8 0 m 656 365 l 511 800 l 508 800 l 363 365 "},"â":{"ha":878,"x_min":0,"x_max":0,"o":"m 157 861 l 364 1042 l 439 1042 l 646 861 l 610 819 l 401 1000 l 194 819 m 281 -22 b 22 186 129 -22 22 63 b 332 419 22 308 128 399 l 474 435 b 532 490 508 439 532 458 b 400 583 532 543 481 583 b 242 454 311 583 250 521 l 42 492 b 396 739 54 632 193 739 b 738 457 604 739 738 628 l 738 174 b 771 126 738 144 750 126 b 822 158 786 126 808 139 l 878 46 b 697 -22 836 3 763 -22 b 538 96 611 -22 547 32 l 535 113 l 533 113 b 281 -22 486 32 396 -22 m 357 126 b 529 288 457 126 529 194 l 529 318 l 382 303 b 231 208 272 292 231 253 b 357 126 231 160 285 126 "},"Æ":{"ha":1338,"x_min":0,"x_max":0,"o":"m 508 989 l 1293 989 l 1293 800 l 893 800 l 893 585 l 1238 585 l 1238 419 l 893 419 l 893 188 l 1307 188 l 1307 0 l 667 0 l 667 164 l 343 164 l 260 0 l -1 0 m 667 329 l 667 824 l 665 824 l 415 329 "},"æ":{"ha":1265,"x_min":0,"x_max":0,"o":"m 319 -28 b 22 186 139 -28 22 58 b 325 410 22 301 129 389 l 475 426 b 529 483 511 431 529 449 b 407 583 529 546 476 583 b 250 454 317 583 257 521 l 50 492 b 375 739 63 632 192 739 b 638 613 486 739 586 693 b 892 739 688 690 785 739 b 1222 376 1094 739 1222 594 b 1214 297 1222 349 1219 319 l 726 297 b 928 129 742 194 819 129 b 1111 225 1013 129 1072 168 l 1238 136 b 929 -28 1182 39 1071 -28 b 633 138 793 -28 678 38 b 319 -28 585 38 463 -28 m 1010 422 b 872 586 1006 518 950 586 b 726 422 794 586 740 519 m 357 126 b 529 288 457 126 529 194 l 529 313 l 367 294 b 231 207 282 286 231 250 b 357 126 231 161 285 126 "},"Ǽ":{"ha":1338,"x_min":0,"x_max":0,"o":"m 642 1117 l 774 1290 l 817 1256 l 685 1082 m 508 989 l 1293 989 l 1293 800 l 893 800 l 893 585 l 1238 585 l 1238 419 l 893 419 l 893 188 l 1307 188 l 1307 0 l 667 0 l 667 164 l 343 164 l 260 0 l -1 0 m 667 329 l 667 824 l 665 824 l 415 329 "},"ǽ":{"ha":1265,"x_min":0,"x_max":0,"o":"m 606 868 l 765 1069 l 810 1035 l 649 833 m 319 -28 b 22 186 139 -28 22 58 b 325 410 22 301 129 389 l 475 426 b 529 483 511 431 529 449 b 407 583 529 546 476 583 b 250 454 317 583 257 521 l 50 492 b 375 739 63 632 192 739 b 638 613 486 739 586 693 b 892 739 688 690 785 739 b 1222 376 1094 739 1222 594 b 1214 297 1222 349 1219 319 l 726 297 b 928 129 742 194 819 129 b 1111 225 1013 129 1072 168 l 1238 136 b 929 -28 1182 39 1071 -28 b 633 138 793 -28 678 38 b 319 -28 585 38 463 -28 m 1010 422 b 872 586 1006 518 950 586 b 726 422 794 586 740 519 m 357 126 b 529 288 457 126 529 194 l 529 313 l 367 294 b 231 207 282 286 231 250 b 357 126 231 161 285 126 "},"Ć":{"ha":1115,"x_min":0,"x_max":0,"o":"m 524 1117 l 656 1290 l 699 1256 l 567 1082 m 578 -35 b 43 494 263 -35 43 182 b 551 1024 43 807 251 1024 b 1017 671 800 1024 971 879 l 801 617 b 553 824 769 739 685 824 b 276 494 390 824 276 688 b 581 165 278 301 401 165 b 856 383 714 165 824 251 l 1071 333 b 578 -35 1025 113 829 -35 "},"ć":{"ha":814,"x_min":0,"x_max":0,"o":"m 367 868 l 526 1069 l 571 1035 l 410 833 m 417 -28 b 32 356 189 -28 32 129 b 403 739 32 582 183 739 b 747 485 576 739 715 636 l 557 439 b 407 568 539 521 476 568 b 242 356 313 568 240 482 b 422 143 242 229 319 143 b 589 276 500 143 563 194 l 783 247 b 417 -28 746 78 606 -28 "},"Ċ":{"ha":1115,"x_min":0,"x_max":0,"o":"m 551 1093 b 433 1208 483 1093 433 1142 b 551 1324 433 1276 483 1324 b 671 1208 621 1324 671 1276 b 551 1093 671 1142 621 1093 m 578 -35 b 43 494 263 -35 43 182 b 551 1024 43 807 251 1024 b 1017 671 800 1024 971 879 l 801 617 b 553 824 769 739 685 824 b 276 494 390 824 276 688 b 581 165 278 301 401 165 b 856 383 714 165 824 251 l 1071 333 b 578 -35 1025 113 829 -35 "},"ċ":{"ha":814,"x_min":0,"x_max":0,"o":"m 401 822 b 283 938 333 822 283 871 b 401 1053 283 1004 333 1053 b 521 938 471 1053 521 1004 b 401 822 521 871 471 822 m 417 -28 b 32 356 189 -28 32 129 b 403 739 32 582 183 739 b 747 485 576 739 715 636 l 557 439 b 407 568 539 521 476 568 b 242 356 313 568 240 482 b 422 143 242 229 319 143 b 589 276 500 143 563 194 l 783 247 b 417 -28 746 78 606 -28 "},"Č":{"ha":1115,"x_min":0,"x_max":0,"o":"m 338 1250 l 375 1292 l 550 1139 l 729 1292 l 765 1250 l 589 1097 l 514 1097 m 578 -35 b 43 494 263 -35 43 182 b 551 1024 43 807 251 1024 b 1017 671 800 1024 971 879 l 801 617 b 553 824 769 739 685 824 b 276 494 390 824 276 688 b 581 165 278 301 401 165 b 856 383 714 165 824 251 l 1071 333 b 578 -35 1025 113 829 -35 "},"č":{"ha":814,"x_min":0,"x_max":0,"o":"m 157 1014 l 194 1056 l 401 875 l 610 1056 l 646 1014 l 439 833 l 364 833 m 417 -28 b 32 356 189 -28 32 129 b 403 739 32 582 183 739 b 747 485 576 739 715 636 l 557 439 b 407 568 539 521 476 568 b 242 356 313 568 240 482 b 422 143 242 229 319 143 b 589 276 500 143 563 194 l 783 247 b 417 -28 746 78 606 -28 "},"Ç":{"ha":1115,"x_min":0,"x_max":0,"o":"m 1071 333 b 603 -35 1026 119 842 -25 l 599 -67 b 732 -175 679 -72 732 -110 b 606 -285 732 -242 682 -285 b 475 -211 551 -285 499 -254 l 518 -176 b 606 -229 533 -207 569 -229 b 676 -178 649 -229 676 -208 b 586 -118 676 -142 640 -118 l 538 -118 l 547 -35 b 43 494 249 -21 43 192 b 551 1024 43 807 251 1024 b 1017 671 800 1024 971 879 l 801 617 b 553 824 769 739 685 824 b 276 494 390 824 276 688 b 581 165 278 301 401 165 b 856 383 714 165 824 251 l 1071 333 "},"ç":{"ha":814,"x_min":0,"x_max":0,"o":"m 783 247 b 442 -28 747 86 618 -18 l 438 -67 b 571 -175 518 -72 571 -110 b 444 -285 571 -242 521 -285 b 314 -211 390 -285 338 -254 l 357 -176 b 444 -229 372 -207 408 -229 b 515 -178 488 -229 515 -208 b 425 -118 515 -142 479 -118 l 376 -118 l 388 -26 b 32 356 175 -14 32 139 b 403 739 32 582 183 739 b 747 485 576 739 715 636 l 557 439 b 407 568 539 521 476 568 b 242 356 313 568 240 482 b 422 143 242 229 319 143 b 589 276 500 143 563 194 l 783 247 "},"Ĉ":{"ha":1115,"x_min":0,"x_max":0,"o":"m 338 1125 l 514 1278 l 589 1278 l 765 1125 l 729 1083 l 550 1236 l 375 1083 m 578 -35 b 43 494 263 -35 43 182 b 551 1024 43 807 251 1024 b 1017 671 800 1024 971 879 l 801 617 b 553 824 769 739 685 824 b 276 494 390 824 276 688 b 581 165 278 301 401 165 b 856 383 714 165 824 251 l 1071 333 b 578 -35 1025 113 829 -35 "},"ĉ":{"ha":814,"x_min":0,"x_max":0,"o":"m 160 861 l 367 1042 l 442 1042 l 649 861 l 613 819 l 404 1000 l 197 819 m 417 -28 b 32 356 189 -28 32 129 b 403 739 32 582 183 739 b 747 485 576 739 715 636 l 557 439 b 407 568 539 521 476 568 b 242 356 313 568 240 482 b 422 143 242 229 319 143 b 589 276 500 143 563 194 l 783 247 b 417 -28 746 78 606 -28 "},"Ď":{"ha":1061,"x_min":0,"x_max":0,"o":"m 286 1250 l 324 1292 l 499 1139 l 678 1292 l 714 1250 l 538 1097 l 463 1097 m 78 989 l 456 989 b 1019 494 800 989 1019 797 b 456 0 1019 192 800 0 l 78 0 m 456 188 b 786 494 656 188 786 304 b 456 801 786 685 656 801 l 306 801 l 306 188 "},"ď":{"ha":863,"x_min":0,"x_max":0,"o":"m 354 -22 b 32 356 167 -22 32 131 b 354 733 32 581 165 733 b 596 586 458 733 543 683 l 597 586 l 597 1031 l 806 1031 l 806 0 l 632 0 l 600 125 l 599 125 b 354 -22 546 29 461 -22 m 894 793 b 1032 861 954 781 1022 793 b 879 938 960 826 879 867 b 974 1022 879 986 918 1022 b 1090 882 1042 1022 1090 965 b 883 742 1090 769 1003 718 m 424 156 b 606 356 529 156 606 243 b 424 554 606 468 529 554 b 242 356 318 554 242 468 b 424 156 242 242 318 156 "},"Đ":{"ha":1118,"x_min":0,"x_max":0,"o":"m 511 989 b 1075 494 856 989 1075 797 b 511 0 1075 192 856 0 l 133 0 l 133 531 l 0 531 l 0 586 l 133 586 l 133 989 l 511 989 m 511 188 b 842 494 711 188 842 304 b 511 801 842 685 711 801 l 361 801 l 361 586 l 574 586 l 574 531 l 361 531 l 361 188 l 511 188 "},"đ":{"ha":865,"x_min":0,"x_max":0,"o":"m 914 835 l 806 835 l 806 0 l 632 0 l 600 125 l 599 125 b 354 -22 546 29 461 -22 b 32 356 167 -22 32 131 b 354 733 32 581 165 733 b 596 586 458 733 543 683 l 597 586 l 597 835 l 367 835 l 367 890 l 597 890 l 597 1031 l 806 1031 l 806 890 l 914 890 m 424 156 b 606 356 529 156 606 243 b 424 554 606 468 529 554 b 242 356 318 554 242 468 b 424 156 242 242 318 156 "},"È":{"ha":818,"x_min":0,"x_max":0,"o":"m 308 1256 l 351 1290 l 483 1117 l 440 1082 m 78 989 l 772 989 l 772 801 l 303 801 l 303 590 l 717 590 l 717 422 l 303 422 l 303 188 l 786 188 l 786 0 l 78 0 "},"è":{"ha":825,"x_min":0,"x_max":0,"o":"m 260 1035 l 304 1069 l 464 868 l 421 833 m 454 -28 b 32 361 207 -28 32 132 b 415 739 32 585 189 739 b 782 376 638 739 782 590 b 774 297 782 349 779 319 l 247 297 b 463 129 261 194 346 129 b 672 225 551 129 632 168 l 797 136 b 454 -28 743 39 610 -28 m 569 422 b 415 586 561 528 503 586 b 247 422 326 586 261 519 "},"É":{"ha":818,"x_min":0,"x_max":0,"o":"m 406 1117 l 538 1290 l 581 1256 l 449 1082 m 78 989 l 772 989 l 772 801 l 303 801 l 303 590 l 717 590 l 717 422 l 303 422 l 303 188 l 786 188 l 786 0 l 78 0 "},"é":{"ha":825,"x_min":0,"x_max":0,"o":"m 382 868 l 542 1069 l 586 1035 l 425 833 m 454 -28 b 32 361 207 -28 32 132 b 415 739 32 585 189 739 b 782 376 638 739 782 590 b 774 297 782 349 779 319 l 247 297 b 463 129 261 194 346 129 b 672 225 551 129 632 168 l 797 136 b 454 -28 743 39 610 -28 m 569 422 b 415 586 561 528 503 586 b 247 422 326 586 261 519 "},"Ě":{"ha":818,"x_min":0,"x_max":0,"o":"m 221 1250 l 258 1292 l 433 1139 l 613 1292 l 649 1250 l 472 1097 l 397 1097 m 78 989 l 772 989 l 772 801 l 303 801 l 303 590 l 717 590 l 717 422 l 303 422 l 303 188 l 786 188 l 786 0 l 78 0 "},"ě":{"ha":825,"x_min":0,"x_max":0,"o":"m 172 1014 l 210 1056 l 417 875 l 625 1056 l 661 1014 l 454 833 l 379 833 m 454 -28 b 32 361 207 -28 32 132 b 415 739 32 585 189 739 b 782 376 638 739 782 590 b 774 297 782 349 779 319 l 247 297 b 463 129 261 194 346 129 b 672 225 551 129 632 168 l 797 136 b 454 -28 743 39 610 -28 m 569 422 b 415 586 561 528 503 586 b 247 422 326 586 261 519 "},"Ê":{"ha":818,"x_min":0,"x_max":0,"o":"m 221 1125 l 397 1278 l 472 1278 l 649 1125 l 613 1083 l 433 1236 l 258 1083 m 78 989 l 772 989 l 772 801 l 303 801 l 303 590 l 717 590 l 717 422 l 303 422 l 303 188 l 786 188 l 786 0 l 78 0 "},"ê":{"ha":825,"x_min":0,"x_max":0,"o":"m 175 861 l 382 1042 l 457 1042 l 664 861 l 628 819 l 419 1000 l 213 819 m 454 -28 b 32 361 207 -28 32 132 b 415 739 32 585 189 739 b 782 376 638 739 782 590 b 774 297 782 349 779 319 l 247 297 b 463 129 261 194 346 129 b 672 225 551 129 632 168 l 797 136 b 454 -28 743 39 610 -28 m 569 422 b 415 586 561 528 503 586 b 247 422 326 586 261 519 "},"Ë":{"ha":818,"x_min":0,"x_max":0,"o":"m 258 1093 b 146 1206 193 1093 146 1139 b 258 1317 146 1269 193 1317 b 372 1206 324 1317 372 1269 b 258 1093 372 1139 324 1093 m 611 1093 b 499 1206 546 1093 499 1139 b 611 1317 499 1269 546 1317 b 724 1206 676 1317 724 1269 b 611 1093 724 1139 676 1093 m 78 989 l 772 989 l 772 801 l 303 801 l 303 590 l 717 590 l 717 422 l 303 422 l 303 188 l 786 188 l 786 0 l 78 0 "},"ë":{"ha":825,"x_min":0,"x_max":0,"o":"m 242 824 b 128 933 176 824 128 869 b 242 1040 128 996 176 1040 b 354 933 307 1040 354 996 b 242 824 354 869 307 824 m 594 824 b 482 933 529 824 482 869 b 594 1040 482 996 529 1040 b 707 933 660 1040 707 996 b 594 824 707 869 660 824 m 454 -28 b 32 361 207 -28 32 132 b 415 739 32 585 189 739 b 782 376 638 739 782 590 b 774 297 782 349 779 319 l 247 297 b 463 129 261 194 346 129 b 672 225 551 129 632 168 l 797 136 b 454 -28 743 39 610 -28 m 569 422 b 415 586 561 528 503 586 b 247 422 326 586 261 519 "},"Ē":{"ha":818,"x_min":0,"x_max":0,"o":"m 213 1161 l 658 1161 l 658 1106 l 213 1106 m 78 989 l 772 989 l 772 801 l 303 801 l 303 590 l 717 590 l 717 422 l 303 422 l 303 188 l 786 188 l 786 0 l 78 0 "},"ē":{"ha":825,"x_min":0,"x_max":0,"o":"m 194 883 l 640 883 l 640 828 l 194 828 m 454 -28 b 32 361 207 -28 32 132 b 415 739 32 585 189 739 b 782 376 638 739 782 590 b 774 297 782 349 779 319 l 247 297 b 463 129 261 194 346 129 b 672 225 551 129 632 168 l 797 136 b 454 -28 743 39 610 -28 m 569 422 b 415 586 561 528 503 586 b 247 422 326 586 261 519 "},"Ĕ":{"ha":818,"x_min":0,"x_max":0,"o":"m 433 1097 b 239 1278 321 1097 239 1172 l 296 1278 b 433 1153 296 1206 353 1153 b 574 1278 514 1153 574 1206 l 628 1278 b 433 1097 628 1174 547 1097 m 78 989 l 772 989 l 772 801 l 303 801 l 303 590 l 717 590 l 717 422 l 303 422 l 303 188 l 786 188 l 786 0 l 78 0 "},"ĕ":{"ha":825,"x_min":0,"x_max":0,"o":"m 417 819 b 181 1042 279 819 181 913 l 238 1042 b 415 875 238 944 313 875 b 599 1042 521 875 599 944 l 653 1042 b 417 819 653 913 554 819 m 454 -28 b 32 361 207 -28 32 132 b 415 739 32 585 189 739 b 782 376 638 739 782 590 b 774 297 782 349 779 319 l 247 297 b 463 129 261 194 346 129 b 672 225 551 129 632 168 l 797 136 b 454 -28 743 39 610 -28 m 569 422 b 415 586 561 528 503 586 b 247 422 326 586 261 519 "},"Ė":{"ha":818,"x_min":0,"x_max":0,"o":"m 435 1093 b 317 1208 367 1093 317 1142 b 435 1324 317 1276 367 1324 b 554 1208 504 1324 554 1276 b 435 1093 554 1142 504 1093 m 78 989 l 772 989 l 772 801 l 303 801 l 303 590 l 717 590 l 717 422 l 303 422 l 303 188 l 786 188 l 786 0 l 78 0 "},"ė":{"ha":825,"x_min":0,"x_max":0,"o":"m 417 822 b 299 938 349 822 299 871 b 417 1053 299 1004 349 1053 b 536 938 486 1053 536 1004 b 417 822 536 871 486 822 m 454 -28 b 32 361 207 -28 32 132 b 415 739 32 585 189 739 b 782 376 638 739 782 590 b 774 297 782 349 779 319 l 247 297 b 463 129 261 194 346 129 b 672 225 551 129 632 168 l 797 136 b 454 -28 743 39 610 -28 m 569 422 b 415 586 561 528 503 586 b 247 422 326 586 261 519 "},"Ę":{"ha":818,"x_min":0,"x_max":0,"o":"m 786 0 b 557 -165 647 -49 557 -86 b 625 -229 557 -204 583 -229 b 721 -179 654 -229 692 -210 l 760 -215 b 622 -285 724 -258 668 -285 b 500 -174 550 -285 501 -240 b 649 0 499 -94 554 -43 l 78 0 l 78 989 l 772 989 l 772 801 l 303 801 l 303 590 l 717 590 l 717 422 l 303 422 l 303 188 l 786 188 l 786 0 "},"ę":{"ha":825,"x_min":0,"x_max":0,"o":"m 610 -4 b 392 -165 476 -51 392 -89 b 460 -229 392 -204 418 -229 b 556 -179 489 -229 526 -210 l 594 -215 b 457 -285 558 -258 503 -285 b 335 -174 385 -285 336 -240 b 431 -28 333 -111 368 -65 b 32 361 196 -17 32 139 b 415 739 32 585 189 739 b 782 376 638 739 782 590 b 774 297 782 349 779 319 l 247 297 b 463 129 261 194 346 129 b 672 225 551 129 632 168 l 797 136 b 610 -4 763 74 694 24 m 415 586 b 247 422 326 586 261 519 l 569 422 b 415 586 561 528 503 586 "},"Ĝ":{"ha":1163,"x_min":0,"x_max":0,"o":"m 350 1125 l 526 1278 l 601 1278 l 778 1125 l 742 1083 l 563 1236 l 388 1083 m 533 -32 b 43 494 244 -32 43 183 b 565 1024 43 807 256 1024 b 1010 706 779 1024 958 893 l 794 658 b 563 824 763 756 668 824 b 276 494 393 824 276 689 b 592 160 276 297 407 160 b 879 408 749 160 874 265 l 482 408 l 482 561 l 1107 561 l 1107 0 l 935 0 l 911 174 l 910 174 b 533 -32 842 44 701 -32 "},"ĝ":{"ha":854,"x_min":0,"x_max":0,"o":"m 174 861 l 381 1042 l 456 1042 l 663 861 l 626 819 l 418 1000 l 211 819 m 367 -319 b -3 -182 218 -319 72 -265 l 79 -29 b 350 -144 139 -99 246 -144 b 589 74 494 -144 589 -58 l 589 125 l 588 125 b 347 4 536 53 442 4 b 32 365 157 4 32 147 b 342 732 32 588 156 732 b 589 586 442 732 540 674 l 590 586 l 621 711 l 797 711 l 797 68 b 367 -319 797 -167 628 -319 m 419 175 b 597 365 526 175 597 256 b 419 561 597 478 526 561 b 240 365 313 561 240 483 b 419 175 240 251 313 175 "},"Ğ":{"ha":1163,"x_min":0,"x_max":0,"o":"m 563 1097 b 368 1278 450 1097 368 1172 l 425 1278 b 563 1153 425 1206 482 1153 b 703 1278 643 1153 703 1206 l 757 1278 b 563 1097 757 1174 676 1097 m 533 -32 b 43 494 244 -32 43 183 b 565 1024 43 807 256 1024 b 1010 706 779 1024 958 893 l 794 658 b 563 824 763 756 668 824 b 276 494 393 824 276 689 b 592 160 276 297 407 160 b 879 408 749 160 874 265 l 482 408 l 482 561 l 1107 561 l 1107 0 l 935 0 l 911 174 l 910 174 b 533 -32 842 44 701 -32 "},"ğ":{"ha":854,"x_min":0,"x_max":0,"o":"m 414 819 b 178 1042 276 819 178 913 l 235 1042 b 413 875 235 944 310 875 b 596 1042 518 875 596 944 l 650 1042 b 414 819 650 913 551 819 m 367 -319 b -3 -182 218 -319 72 -265 l 79 -29 b 350 -144 139 -99 246 -144 b 589 74 494 -144 589 -58 l 589 125 l 588 125 b 347 4 536 53 442 4 b 32 365 157 4 32 147 b 342 732 32 588 156 732 b 589 586 442 732 540 674 l 590 586 l 621 711 l 797 711 l 797 68 b 367 -319 797 -167 628 -319 m 419 175 b 597 365 526 175 597 256 b 419 561 597 478 526 561 b 240 365 313 561 240 483 b 419 175 240 251 313 175 "},"Ġ":{"ha":1163,"x_min":0,"x_max":0,"o":"m 563 1093 b 444 1208 494 1093 444 1142 b 563 1324 444 1276 494 1324 b 682 1208 632 1324 682 1276 b 563 1093 682 1142 632 1093 m 533 -32 b 43 494 244 -32 43 183 b 565 1024 43 807 256 1024 b 1010 706 779 1024 958 893 l 794 658 b 563 824 763 756 668 824 b 276 494 393 824 276 689 b 592 160 276 297 407 160 b 879 408 749 160 874 265 l 482 408 l 482 561 l 1107 561 l 1107 0 l 935 0 l 911 174 l 910 174 b 533 -32 842 44 701 -32 "},"ġ":{"ha":854,"x_min":0,"x_max":0,"o":"m 414 822 b 296 938 346 822 296 871 b 414 1053 296 1004 346 1053 b 533 938 483 1053 533 1004 b 414 822 533 871 483 822 m 367 -319 b -3 -182 218 -319 72 -265 l 79 -29 b 350 -144 139 -99 246 -144 b 589 74 494 -144 589 -58 l 589 125 l 588 125 b 347 4 536 53 442 4 b 32 365 157 4 32 147 b 342 732 32 588 156 732 b 589 586 442 732 540 674 l 590 586 l 621 711 l 797 711 l 797 68 b 367 -319 797 -167 628 -319 m 419 175 b 597 365 526 175 597 256 b 419 561 597 478 526 561 b 240 365 313 561 240 483 b 419 175 240 251 313 175 "},"Ģ":{"ha":1163,"x_min":0,"x_max":0,"o":"m 533 -32 b 43 494 244 -32 43 183 b 565 1024 43 807 256 1024 b 1010 706 779 1024 958 893 l 794 658 b 563 824 763 756 668 824 b 276 494 393 824 276 689 b 592 160 276 297 407 160 b 879 408 749 160 874 265 l 482 408 l 482 561 l 1107 561 l 1107 0 l 935 0 l 911 174 l 910 174 b 533 -32 842 44 701 -32 m 489 -321 b 626 -253 549 -333 617 -321 b 474 -176 554 -287 474 -247 b 568 -92 474 -128 513 -92 b 685 -232 636 -92 685 -149 b 478 -372 685 -344 597 -396 "},"ģ":{"ha":854,"x_min":0,"x_max":0,"o":"m 499 1032 b 361 964 439 1044 371 1032 b 514 888 433 999 514 958 b 419 803 514 839 475 803 b 303 943 351 803 303 860 b 510 1083 303 1056 390 1107 m 367 -319 b -3 -182 218 -319 72 -265 l 79 -29 b 350 -144 139 -99 246 -144 b 589 74 494 -144 589 -58 l 589 125 l 588 125 b 347 4 536 53 442 4 b 32 365 157 4 32 147 b 342 732 32 588 156 732 b 589 586 442 732 540 674 l 590 586 l 621 711 l 797 711 l 797 68 b 367 -319 797 -167 628 -319 m 419 175 b 597 365 526 175 597 256 b 419 561 597 478 526 561 b 240 365 313 561 240 483 b 419 175 240 251 313 175 "},"Ì":{"ha":389,"x_min":0,"x_max":0,"o":"m 36 1251 l 74 1290 l 256 1122 l 218 1082 m 78 989 l 311 989 l 311 0 l 78 0 "},"ì":{"ha":324,"x_min":0,"x_max":0,"o":"m -10 1006 l 29 1046 l 244 849 l 207 810 m 57 711 l 267 711 l 267 0 l 57 0 "},"Í":{"ha":389,"x_min":0,"x_max":0,"o":"m 133 1122 l 314 1290 l 353 1251 l 171 1082 m 78 989 l 311 989 l 311 0 l 78 0 "},"í":{"ha":324,"x_min":0,"x_max":0,"o":"m 79 849 l 294 1046 l 333 1006 l 117 810 m 57 711 l 267 711 l 267 0 l 57 0 "},"Î":{"ha":389,"x_min":0,"x_max":0,"o":"m 11 1121 l 157 1278 l 232 1278 l 379 1121 l 338 1083 l 193 1235 l 53 1083 m 78 989 l 311 989 l 311 0 l 78 0 "},"î":{"ha":324,"x_min":0,"x_max":0,"o":"m -21 853 l 124 1042 l 199 1042 l 344 853 l 300 819 l 161 999 l 24 819 m 57 711 l 267 711 l 267 0 l 57 0 "},"Ï":{"ha":389,"x_min":0,"x_max":0,"o":"m 58 1093 b -54 1206 -7 1093 -54 1139 b 58 1317 -54 1269 -7 1317 b 172 1206 124 1317 172 1269 b 58 1093 172 1139 124 1093 m 331 1093 b 218 1206 265 1093 218 1139 b 331 1317 218 1269 265 1317 b 443 1206 396 1317 443 1269 b 331 1093 443 1139 396 1093 m 78 989 l 311 989 l 311 0 l 78 0 "},"ï":{"ha":324,"x_min":0,"x_max":0,"o":"m 29 822 b -83 932 -37 822 -83 867 b 29 1040 -83 996 -37 1040 b 143 932 96 1040 143 996 b 29 822 143 867 96 822 m 294 822 b 182 932 228 822 182 867 b 294 1040 182 996 228 1040 b 408 932 361 1040 408 996 b 294 822 408 867 361 822 m 57 711 l 267 711 l 267 0 l 57 0 "},"Ĩ":{"ha":389,"x_min":0,"x_max":0,"o":"m 286 1083 b 172 1164 232 1083 200 1126 b 100 1226 149 1196 126 1226 b 38 1097 63 1226 38 1172 l -18 1097 b 100 1282 -18 1204 28 1282 b 218 1194 157 1282 190 1235 b 283 1139 239 1164 258 1139 b 349 1269 321 1139 349 1193 l 406 1269 b 286 1083 406 1161 358 1083 m 78 989 l 311 989 l 311 0 l 78 0 "},"ĩ":{"ha":324,"x_min":0,"x_max":0,"o":"m 243 807 b 144 882 196 807 168 844 b 81 950 122 917 104 950 b 29 821 51 950 29 896 l -26 821 b 81 1006 -26 928 14 1006 b 182 925 129 1006 158 964 b 240 863 201 893 218 863 b 294 993 271 863 294 917 l 350 993 b 243 807 350 885 310 807 m 57 711 l 267 711 l 267 0 l 57 0 "},"Ī":{"ha":389,"x_min":0,"x_max":0,"o":"m 24 1161 l 364 1161 l 364 1106 l 24 1106 m 78 989 l 311 989 l 311 0 l 78 0 "},"ī":{"ha":324,"x_min":0,"x_max":0,"o":"m 6 883 l 318 883 l 318 828 l 6 828 m 57 711 l 267 711 l 267 0 l 57 0 "},"Į":{"ha":389,"x_min":0,"x_max":0,"o":"m 311 989 l 311 0 l 299 0 b 69 -165 160 -49 69 -86 b 138 -229 69 -204 96 -229 b 233 -179 167 -229 204 -210 l 272 -215 b 135 -285 236 -258 181 -285 b 13 -174 63 -285 14 -240 b 161 0 11 -94 67 -43 l 78 0 l 78 989 "},"į":{"ha":324,"x_min":0,"x_max":0,"o":"m 168 810 b 43 932 93 810 43 858 b 168 1053 43 1004 93 1053 b 294 932 243 1053 294 1004 b 168 810 294 858 243 810 m 63 711 l 271 711 l 271 0 l 263 0 b 33 -165 124 -49 33 -86 b 101 -229 33 -204 60 -229 b 197 -179 131 -229 168 -210 l 236 -215 b 99 -285 200 -258 144 -285 b -24 -174 26 -285 -22 -240 b 125 0 -25 -94 31 -43 l 63 0 "},"İ":{"ha":389,"x_min":0,"x_max":0,"o":"m 193 1093 b 75 1208 125 1093 75 1142 b 193 1324 75 1276 125 1324 b 313 1208 263 1324 313 1276 b 193 1093 313 1142 263 1093 m 78 989 l 311 989 l 311 0 l 78 0 "},"ı":{"ha":324,"x_min":0,"x_max":0,"o":"m 57 711 l 267 711 l 267 0 l 57 0 "},"Ĳ":{"ha":1206,"x_min":0,"x_max":0,"o":"m 78 989 l 311 989 l 311 0 l 78 0 m 790 -28 b 411 260 586 -28 440 86 l 611 329 b 778 160 628 228 697 160 b 908 314 856 160 908 222 l 908 989 l 1143 989 l 1143 299 b 790 -28 1143 101 1004 -28 "},"ĳ":{"ha":678,"x_min":0,"x_max":0,"o":"m 168 810 b 43 932 93 810 43 858 b 168 1053 43 1004 93 1053 b 294 932 243 1053 294 1004 b 168 810 294 858 243 810 m 508 810 b 383 932 433 810 383 860 b 508 1053 383 1004 433 1053 b 633 932 582 1053 633 1004 b 508 810 633 860 582 810 m 63 711 l 271 711 l 271 0 l 63 0 m 356 -319 b 199 -296 297 -319 239 -311 l 219 -147 b 300 -160 247 -157 276 -160 b 404 -43 365 -160 404 -117 l 404 711 l 613 711 l 613 -72 b 356 -319 613 -226 517 -319 "},"ȷ":{"ha":340,"x_min":0,"x_max":0,"o":"m 18 -319 b -139 -296 -40 -319 -99 -311 l -118 -147 b -37 -160 -90 -157 -61 -160 b 67 -43 28 -160 67 -117 l 67 711 l 275 711 l 275 -72 b 18 -319 275 -226 179 -319 "},"Ķ":{"ha":938,"x_min":0,"x_max":0,"o":"m 78 989 l 311 989 l 311 607 l 313 607 l 632 989 l 914 989 l 574 607 l 931 0 l 651 0 l 417 435 l 311 321 l 311 0 l 78 0 m 389 -321 b 526 -253 449 -333 517 -321 b 374 -176 454 -287 374 -247 b 468 -92 374 -128 413 -92 b 585 -232 536 -92 585 -149 b 378 -372 585 -344 497 -396 "},"ķ":{"ha":763,"x_min":0,"x_max":0,"o":"m 57 1031 l 267 1031 l 267 451 l 268 451 l 501 711 l 746 711 l 482 436 l 763 0 l 529 0 l 346 306 l 267 221 l 267 0 l 57 0 m 294 -321 b 432 -253 354 -333 422 -321 b 279 -176 360 -287 279 -247 b 374 -92 279 -128 318 -92 b 490 -232 442 -92 490 -149 b 283 -372 490 -344 403 -396 "},"Ĺ":{"ha":744,"x_min":0,"x_max":0,"o":"m 165 1117 l 297 1290 l 340 1256 l 208 1082 m 78 989 l 311 989 l 311 200 l 725 200 l 725 0 l 78 0 "},"ĺ":{"ha":324,"x_min":0,"x_max":0,"o":"m 133 1117 l 265 1290 l 308 1256 l 176 1082 m 57 1031 l 267 1031 l 267 0 l 57 0 "},"Ľ":{"ha":744,"x_min":0,"x_max":0,"o":"m 449 793 b 586 861 508 781 576 793 b 433 938 514 826 433 867 b 528 1022 433 986 472 1022 b 644 882 596 1022 644 965 b 438 742 644 769 557 718 m 78 989 l 311 989 l 311 200 l 725 200 l 725 0 l 78 0 "},"ľ":{"ha":324,"x_min":0,"x_max":0,"o":"m 57 1031 l 267 1031 l 267 0 l 57 0 m 356 793 b 493 861 415 781 483 793 b 340 938 421 826 340 867 b 435 1022 340 986 379 1022 b 551 882 503 1022 551 965 b 344 742 551 769 464 718 "},"Ļ":{"ha":744,"x_min":0,"x_max":0,"o":"m 78 989 l 311 989 l 311 200 l 725 200 l 725 0 l 78 0 m 319 -321 b 457 -253 379 -333 447 -321 b 304 -176 385 -287 304 -247 b 399 -92 304 -128 343 -92 b 515 -232 467 -92 515 -149 b 308 -372 515 -344 428 -396 "},"ļ":{"ha":324,"x_min":0,"x_max":0,"o":"m 57 1031 l 267 1031 l 267 0 l 57 0 m 78 -321 b 215 -253 138 -333 206 -321 b 63 -176 143 -287 63 -247 b 157 -92 63 -128 101 -92 b 274 -232 225 -92 274 -149 b 67 -372 274 -344 186 -396 "},"Ł":{"ha":865,"x_min":0,"x_max":0,"o":"m 846 200 l 846 0 l 199 0 l 199 429 l 28 331 l 0 379 l 199 493 l 199 989 l 432 989 l 432 628 l 675 768 l 703 719 l 432 564 l 432 200 "},"ł":{"ha":601,"x_min":0,"x_max":0,"o":"m 406 579 l 406 0 l 196 0 l 196 450 l 28 347 l 0 396 l 196 515 l 196 1031 l 406 1031 l 406 644 l 574 747 l 601 699 "},"Ń":{"ha":1056,"x_min":0,"x_max":0,"o":"m 506 1117 l 638 1290 l 681 1256 l 549 1082 m 78 989 l 351 989 l 754 285 l 757 285 l 757 989 l 978 989 l 978 0 l 704 0 l 301 704 l 299 704 l 299 0 l 78 0 "},"ń":{"ha":808,"x_min":0,"x_max":0,"o":"m 379 868 l 539 1069 l 583 1035 l 422 833 m 518 733 b 754 485 665 733 754 640 l 754 0 l 546 0 l 546 425 b 425 558 546 507 499 558 b 267 392 333 558 267 492 l 267 0 l 57 0 l 57 711 l 233 711 l 265 590 l 267 590 b 518 733 321 681 406 733 "},"Ň":{"ha":1056,"x_min":0,"x_max":0,"o":"m 321 1250 l 358 1292 l 533 1139 l 713 1292 l 749 1250 l 572 1097 l 497 1097 m 78 989 l 351 989 l 754 285 l 757 285 l 757 989 l 978 989 l 978 0 l 704 0 l 301 704 l 299 704 l 299 0 l 78 0 "},"ň":{"ha":808,"x_min":0,"x_max":0,"o":"m 169 1014 l 207 1056 l 414 875 l 622 1056 l 658 1014 l 451 833 l 376 833 m 518 733 b 754 485 665 733 754 640 l 754 0 l 546 0 l 546 425 b 425 558 546 507 499 558 b 267 392 333 558 267 492 l 267 0 l 57 0 l 57 711 l 233 711 l 265 590 l 267 590 b 518 733 321 681 406 733 "},"Ñ":{"ha":1056,"x_min":0,"x_max":0,"o":"m 642 1083 b 508 1169 579 1083 542 1131 b 425 1226 482 1200 457 1226 b 347 1097 379 1226 347 1172 l 292 1097 b 426 1282 292 1204 346 1282 b 554 1201 486 1282 521 1240 b 640 1139 581 1168 606 1139 b 721 1269 688 1139 721 1193 l 778 1269 b 642 1083 778 1161 721 1083 m 78 989 l 351 989 l 754 285 l 757 285 l 757 989 l 978 989 l 978 0 l 704 0 l 301 704 l 299 704 l 299 0 l 78 0 "},"ñ":{"ha":808,"x_min":0,"x_max":0,"o":"m 519 819 b 396 894 464 819 428 858 b 303 963 367 929 339 963 b 225 833 257 963 225 908 l 169 833 b 304 1018 169 940 224 1018 b 425 946 360 1018 394 982 b 519 875 456 911 482 875 b 600 1006 567 875 600 929 l 656 1006 b 519 819 656 897 599 819 m 518 733 b 754 485 665 733 754 640 l 754 0 l 546 0 l 546 425 b 425 558 546 507 499 558 b 267 392 333 558 267 492 l 267 0 l 57 0 l 57 711 l 233 711 l 265 590 l 267 590 b 518 733 321 681 406 733 "},"Ņ":{"ha":1056,"x_min":0,"x_max":0,"o":"m 78 989 l 351 989 l 754 285 l 757 285 l 757 989 l 978 989 l 978 0 l 704 0 l 301 704 l 299 704 l 299 0 l 78 0 m 447 -321 b 585 -253 507 -333 575 -321 b 432 -176 513 -287 432 -247 b 526 -92 432 -128 471 -92 b 643 -232 594 -92 643 -149 b 436 -372 643 -344 556 -396 "},"ņ":{"ha":808,"x_min":0,"x_max":0,"o":"m 518 733 b 754 485 665 733 754 640 l 754 0 l 546 0 l 546 425 b 425 558 546 507 499 558 b 267 392 333 558 267 492 l 267 0 l 57 0 l 57 711 l 233 711 l 265 590 l 267 590 b 518 733 321 681 406 733 m 322 -321 b 460 -253 382 -333 450 -321 b 307 -176 388 -287 307 -247 b 401 -92 307 -128 346 -92 b 518 -232 469 -92 518 -149 b 311 -372 518 -344 431 -396 "},"Ò":{"ha":1181,"x_min":0,"x_max":0,"o":"m 464 1256 l 507 1290 l 639 1117 l 596 1082 m 590 -35 b 43 494 258 -35 43 175 b 590 1024 43 814 258 1024 b 1138 494 921 1024 1138 814 b 590 -35 1138 175 921 -35 m 590 165 b 904 494 781 165 904 296 b 590 824 904 693 781 824 b 276 494 400 824 276 693 b 590 165 276 296 400 165 "},"ò":{"ha":854,"x_min":0,"x_max":0,"o":"m 271 1035 l 315 1069 l 475 868 l 432 833 m 428 -28 b 32 356 189 -28 32 124 b 428 739 32 588 189 739 b 822 356 665 739 822 588 b 428 -28 822 124 665 -28 m 428 147 b 617 356 543 147 617 228 b 428 565 617 483 543 565 b 239 356 311 565 239 483 b 428 147 239 228 311 147 "},"Ó":{"ha":1181,"x_min":0,"x_max":0,"o":"m 563 1117 l 694 1290 l 738 1256 l 606 1082 m 590 -35 b 43 494 258 -35 43 175 b 590 1024 43 814 258 1024 b 1138 494 921 1024 1138 814 b 590 -35 1138 175 921 -35 m 590 165 b 904 494 781 165 904 296 b 590 824 904 693 781 824 b 276 494 400 824 276 693 b 590 165 276 296 400 165 "},"ó":{"ha":854,"x_min":0,"x_max":0,"o":"m 392 868 l 551 1069 l 596 1035 l 435 833 m 428 -28 b 32 356 189 -28 32 124 b 428 739 32 588 189 739 b 822 356 665 739 822 588 b 428 -28 822 124 665 -28 m 428 147 b 617 356 543 147 617 228 b 428 565 617 483 543 565 b 239 356 311 565 239 483 b 428 147 239 228 311 147 "},"Õ":{"ha":1181,"x_min":0,"x_max":0,"o":"m 699 1083 b 565 1169 636 1083 599 1131 b 482 1226 539 1200 514 1226 b 404 1097 436 1226 404 1172 l 349 1097 b 483 1282 349 1204 403 1282 b 611 1201 543 1282 578 1240 b 697 1139 638 1168 663 1139 b 778 1269 744 1139 778 1193 l 835 1269 b 699 1083 835 1161 778 1083 m 590 -35 b 43 494 258 -35 43 175 b 590 1024 43 814 258 1024 b 1138 494 921 1024 1138 814 b 590 -35 1138 175 921 -35 m 590 165 b 904 494 781 165 904 296 b 590 824 904 693 781 824 b 276 494 400 824 276 693 b 590 165 276 296 400 165 "},"õ":{"ha":854,"x_min":0,"x_max":0,"o":"m 532 819 b 408 894 476 819 440 858 b 315 963 379 929 351 963 b 238 833 269 963 238 908 l 182 833 b 317 1018 182 940 236 1018 b 438 946 372 1018 407 982 b 532 875 468 911 494 875 b 613 1006 579 875 613 929 l 668 1006 b 532 819 668 897 611 819 m 428 -28 b 32 356 189 -28 32 124 b 428 739 32 588 189 739 b 822 356 665 739 822 588 b 428 -28 822 124 665 -28 m 428 147 b 617 356 543 147 617 228 b 428 565 617 483 543 565 b 239 356 311 565 239 483 b 428 147 239 228 311 147 "},"Ö":{"ha":1181,"x_min":0,"x_max":0,"o":"m 414 1093 b 301 1206 349 1093 301 1139 b 414 1317 301 1269 349 1317 b 528 1206 479 1317 528 1269 b 414 1093 528 1139 479 1093 m 767 1093 b 654 1206 701 1093 654 1139 b 767 1317 654 1269 701 1317 b 879 1206 832 1317 879 1269 b 767 1093 879 1139 832 1093 m 590 -35 b 43 494 258 -35 43 175 b 590 1024 43 814 258 1024 b 1138 494 921 1024 1138 814 b 590 -35 1138 175 921 -35 m 590 165 b 904 494 781 165 904 296 b 590 824 904 693 781 824 b 276 494 400 824 276 693 b 590 165 276 296 400 165 "},"ö":{"ha":854,"x_min":0,"x_max":0,"o":"m 251 824 b 138 933 186 824 138 869 b 251 1040 138 996 186 1040 b 364 933 317 1040 364 996 b 251 824 364 869 317 824 m 604 824 b 492 933 539 824 492 869 b 604 1040 492 996 539 1040 b 717 933 669 1040 717 996 b 604 824 717 869 669 824 m 428 -28 b 32 356 189 -28 32 124 b 428 739 32 588 189 739 b 822 356 665 739 822 588 b 428 -28 822 124 665 -28 m 428 147 b 617 356 543 147 617 228 b 428 565 617 483 543 565 b 239 356 311 565 239 483 b 428 147 239 228 311 147 "},"Ø":{"ha":1181,"x_min":0,"x_max":0,"o":"m 790 994 b 1138 494 1006 926 1138 744 b 590 -35 1138 175 921 -35 b 463 -24 546 -35 503 -31 l 410 -189 l 357 -174 l 408 -11 b 43 494 182 51 43 238 b 590 1024 43 814 258 1024 b 735 1008 642 1024 690 1018 l 781 1151 l 835 1133 l 790 994 m 276 494 b 471 185 276 342 350 228 l 672 815 b 590 824 647 821 619 824 b 276 494 400 824 276 693 m 590 165 b 904 494 781 165 904 296 b 726 797 904 640 838 750 l 525 171 b 590 165 546 167 568 165 "},"ø":{"ha":854,"x_min":0,"x_max":0,"o":"m 575 717 b 822 356 728 667 822 535 b 428 -28 822 124 665 -28 b 338 -19 396 -28 367 -25 l 238 -333 l 185 -318 l 285 -7 b 32 356 128 42 32 174 b 428 739 32 588 189 739 b 519 731 460 739 490 736 l 608 1007 l 663 989 l 575 717 m 235 356 b 339 165 235 264 274 196 l 467 563 b 428 565 454 564 442 565 b 235 356 310 565 235 483 m 428 147 b 619 356 544 147 619 228 b 519 544 619 446 582 513 l 393 150 b 428 147 404 149 415 147 "},"Ǿ":{"ha":1181,"x_min":0,"x_max":0,"o":"m 583 1082 l 540 1117 l 672 1290 l 715 1256 m 790 994 b 1138 494 1006 926 1138 744 b 590 -35 1138 175 921 -35 b 463 -24 546 -35 503 -31 l 410 -189 l 357 -174 l 408 -11 b 43 494 182 51 43 238 b 590 1024 43 814 258 1024 b 735 1008 642 1024 690 1018 l 781 1151 l 835 1133 l 790 994 m 276 494 b 471 185 276 342 350 228 l 672 815 b 590 824 647 821 619 824 b 276 494 400 824 276 693 m 590 165 b 904 494 781 165 904 296 b 726 797 904 640 838 750 l 525 171 b 590 165 546 167 568 165 "},"ǿ":{"ha":854,"x_min":0,"x_max":0,"o":"m 346 833 l 303 868 l 463 1069 l 507 1035 m 575 717 b 822 356 728 667 822 535 b 428 -28 822 124 665 -28 b 338 -19 396 -28 367 -25 l 238 -333 l 185 -318 l 285 -7 b 32 356 128 42 32 174 b 428 739 32 588 189 739 b 519 731 460 739 490 736 l 608 1007 l 663 989 l 575 717 m 235 356 b 339 165 235 264 274 196 l 467 563 b 428 565 454 564 442 565 b 235 356 310 565 235 483 m 428 147 b 619 356 544 147 619 228 b 519 544 619 446 582 513 l 393 150 b 428 147 404 149 415 147 "},"Ō":{"ha":1181,"x_min":0,"x_max":0,"o":"m 368 1161 l 814 1161 l 814 1106 l 368 1106 m 590 -35 b 43 494 258 -35 43 175 b 590 1024 43 814 258 1024 b 1138 494 921 1024 1138 814 b 590 -35 1138 175 921 -35 m 590 165 b 904 494 781 165 904 296 b 590 824 904 693 781 824 b 276 494 400 824 276 693 b 590 165 276 296 400 165 "},"ō":{"ha":854,"x_min":0,"x_max":0,"o":"m 206 883 l 651 883 l 651 828 l 206 828 m 428 -28 b 32 356 189 -28 32 124 b 428 739 32 588 189 739 b 822 356 665 739 822 588 b 428 -28 822 124 665 -28 m 428 147 b 617 356 543 147 617 228 b 428 565 617 483 543 565 b 239 356 311 565 239 483 b 428 147 239 228 311 147 "},"Ŏ":{"ha":1181,"x_min":0,"x_max":0,"o":"m 589 1097 b 394 1278 476 1097 394 1172 l 451 1278 b 589 1153 451 1206 508 1153 b 729 1278 669 1153 729 1206 l 783 1278 b 589 1097 783 1174 703 1097 m 590 -35 b 43 494 258 -35 43 175 b 590 1024 43 814 258 1024 b 1138 494 921 1024 1138 814 b 590 -35 1138 175 921 -35 m 590 165 b 904 494 781 165 904 296 b 590 824 904 693 781 824 b 276 494 400 824 276 693 b 590 165 276 296 400 165 "},"ŏ":{"ha":854,"x_min":0,"x_max":0,"o":"m 426 819 b 190 1042 289 819 190 913 l 247 1042 b 425 875 247 944 322 875 b 608 1042 531 875 608 944 l 663 1042 b 426 819 663 913 564 819 m 428 -28 b 32 356 189 -28 32 124 b 428 739 32 588 189 739 b 822 356 665 739 822 588 b 428 -28 822 124 665 -28 m 428 147 b 617 356 543 147 617 228 b 428 565 617 483 543 565 b 239 356 311 565 239 483 b 428 147 239 228 311 147 "},"Ő":{"ha":1181,"x_min":0,"x_max":0,"o":"m 440 1106 l 572 1279 l 615 1244 l 483 1071 m 667 1106 l 799 1279 l 842 1244 l 708 1071 m 590 -35 b 43 494 258 -35 43 175 b 590 1024 43 814 258 1024 b 1138 494 921 1024 1138 814 b 590 -35 1138 175 921 -35 m 590 165 b 904 494 781 165 904 296 b 590 824 904 693 781 824 b 276 494 400 824 276 693 b 590 165 276 296 400 165 "},"ő":{"ha":854,"x_min":0,"x_max":0,"o":"m 276 868 l 436 1069 l 481 1035 l 319 833 m 503 868 l 663 1069 l 706 1035 l 546 833 m 428 -28 b 32 356 189 -28 32 124 b 428 739 32 588 189 739 b 822 356 665 739 822 588 b 428 -28 822 124 665 -28 m 428 147 b 617 356 543 147 617 228 b 428 565 617 483 543 565 b 239 356 311 565 239 483 b 428 147 239 228 311 147 "},"Ô":{"ha":1181,"x_min":0,"x_max":0,"o":"m 376 1125 l 553 1278 l 628 1278 l 804 1125 l 768 1083 l 589 1236 l 414 1083 m 590 -35 b 43 494 258 -35 43 175 b 590 1024 43 814 258 1024 b 1138 494 921 1024 1138 814 b 590 -35 1138 175 921 -35 m 590 165 b 904 494 781 165 904 296 b 590 824 904 693 781 824 b 276 494 400 824 276 693 b 590 165 276 296 400 165 "},"ô":{"ha":854,"x_min":0,"x_max":0,"o":"m 186 861 l 393 1042 l 468 1042 l 675 861 l 639 819 l 431 1000 l 224 819 m 428 -28 b 32 356 189 -28 32 124 b 428 739 32 588 189 739 b 822 356 665 739 822 588 b 428 -28 822 124 665 -28 m 428 147 b 617 356 543 147 617 228 b 428 565 617 483 543 565 b 239 356 311 565 239 483 b 428 147 239 228 311 147 "},"Œ":{"ha":1414,"x_min":0,"x_max":0,"o":"m 557 -21 b 43 494 236 -21 43 181 b 557 1010 43 808 236 1010 b 735 989 611 1010 678 1003 l 1368 989 l 1368 801 l 951 801 l 951 585 l 1313 585 l 1313 419 l 951 419 l 951 188 l 1382 188 l 1382 0 l 735 0 b 557 -21 678 -14 611 -21 m 571 181 b 724 214 628 181 686 193 l 724 774 b 579 808 689 796 633 808 b 276 494 399 808 276 686 b 571 181 276 303 396 181 "},"œ":{"ha":1413,"x_min":0,"x_max":0,"o":"m 1378 136 b 1049 -22 1325 39 1192 -22 b 722 117 904 -22 790 28 b 415 -22 658 28 551 -22 b 32 356 181 -22 32 124 b 415 733 32 588 181 733 b 715 603 547 733 651 686 b 1010 733 775 686 875 733 b 1374 358 1228 733 1374 588 b 1371 297 1374 333 1374 304 l 836 297 b 1050 132 849 197 935 132 b 1253 225 1136 132 1218 169 m 1000 579 b 832 422 908 579 843 518 l 1161 422 b 1000 579 1153 513 1090 579 m 428 150 b 614 356 542 150 614 229 b 428 561 614 482 542 561 b 242 356 314 561 242 482 b 428 150 242 229 314 150 "},"Ŕ":{"ha":988,"x_min":0,"x_max":0,"o":"m 444 1117 l 576 1290 l 619 1256 l 488 1082 m 78 989 l 557 989 b 946 678 786 989 946 861 b 721 415 946 544 857 450 l 933 0 l 679 0 l 499 374 l 311 374 l 311 0 l 78 0 m 538 539 b 713 675 635 539 713 593 b 538 813 713 757 635 813 l 311 813 l 311 539 "},"ŕ":{"ha":704,"x_min":0,"x_max":0,"o":"m 326 868 l 486 1069 l 531 1035 l 369 833 m 457 733 b 683 489 582 733 667 643 l 507 440 b 399 574 500 524 460 574 b 267 381 315 574 267 503 l 267 0 l 57 0 l 57 711 l 224 711 l 256 597 l 257 597 b 457 733 294 683 369 733 "},"Ř":{"ha":988,"x_min":0,"x_max":0,"o":"m 258 1250 l 296 1292 l 471 1139 l 650 1292 l 686 1250 l 510 1097 l 435 1097 m 78 989 l 557 989 b 946 678 786 989 946 861 b 721 415 946 544 857 450 l 933 0 l 679 0 l 499 374 l 311 374 l 311 0 l 78 0 m 538 539 b 713 675 635 539 713 593 b 538 813 713 757 635 813 l 311 813 l 311 539 "},"ř":{"ha":704,"x_min":0,"x_max":0,"o":"m 115 1014 l 153 1056 l 360 875 l 568 1056 l 604 1014 l 397 833 l 322 833 m 457 733 b 683 489 582 733 667 643 l 507 440 b 399 574 500 524 460 574 b 267 381 315 574 267 503 l 267 0 l 57 0 l 57 711 l 224 711 l 256 597 l 257 597 b 457 733 294 683 369 733 "},"Ŗ":{"ha":988,"x_min":0,"x_max":0,"o":"m 78 989 l 557 989 b 946 678 786 989 946 861 b 721 415 946 544 857 450 l 933 0 l 679 0 l 499 374 l 311 374 l 311 0 l 78 0 m 538 539 b 713 675 635 539 713 593 b 538 813 713 757 635 813 l 311 813 l 311 539 m 407 -321 b 544 -253 467 -333 535 -321 b 392 -176 472 -287 392 -247 b 486 -92 392 -128 431 -92 b 603 -232 554 -92 603 -149 b 396 -372 603 -344 515 -396 "},"ŗ":{"ha":704,"x_min":0,"x_max":0,"o":"m 457 733 b 683 489 582 733 667 643 l 507 440 b 399 574 500 524 460 574 b 267 381 315 574 267 503 l 267 0 l 57 0 l 57 711 l 224 711 l 256 597 l 257 597 b 457 733 294 683 369 733 m 78 -321 b 215 -253 138 -333 206 -321 b 63 -176 143 -287 63 -247 b 157 -92 63 -128 101 -92 b 274 -232 225 -92 274 -149 b 67 -372 274 -344 186 -396 "},"Ś":{"ha":928,"x_min":0,"x_max":0,"o":"m 424 1117 l 556 1290 l 599 1256 l 467 1082 m 481 -35 b 31 301 236 -35 51 89 l 244 340 b 489 142 256 222 357 142 b 678 272 606 142 678 199 b 514 392 678 332 629 367 l 376 418 b 67 703 163 460 67 547 b 457 1024 67 897 229 1024 b 844 740 663 1024 819 911 l 635 693 b 454 847 625 786 551 847 b 296 726 357 847 296 796 b 442 613 296 667 340 632 l 581 586 b 906 299 803 549 906 457 b 481 -35 906 93 732 -35 "},"ś":{"ha":747,"x_min":0,"x_max":0,"o":"m 324 868 l 483 1069 l 528 1035 l 367 833 m 378 -25 b 25 224 185 -25 35 61 l 210 244 b 389 118 217 168 290 118 b 535 201 469 118 535 153 b 390 282 535 242 490 267 l 281 299 b 57 503 124 325 57 386 b 363 736 58 647 182 736 b 678 526 532 736 660 651 l 499 497 b 356 597 493 558 435 597 b 239 521 289 597 239 563 b 358 450 238 486 274 465 l 467 432 b 722 217 646 400 722 336 b 378 -25 722 71 581 -25 "},"Ş":{"ha":928,"x_min":0,"x_max":0,"o":"m 906 299 b 485 -35 906 94 733 -33 l 481 -67 b 614 -175 561 -72 614 -110 b 488 -285 614 -242 564 -285 b 357 -211 433 -285 381 -254 l 400 -176 b 488 -229 415 -207 451 -229 b 558 -178 531 -229 558 -208 b 468 -118 558 -142 522 -118 l 419 -118 l 429 -33 b 31 301 211 -17 50 104 l 244 340 b 489 142 256 222 357 142 b 678 272 606 142 678 199 b 514 392 678 332 629 367 l 376 418 b 67 703 163 460 67 547 b 457 1024 67 897 229 1024 b 844 740 663 1024 819 911 l 635 693 b 454 847 625 786 551 847 b 296 726 357 847 296 796 b 442 613 296 667 340 632 l 581 586 b 906 299 803 549 906 457 "},"ş":{"ha":747,"x_min":0,"x_max":0,"o":"m 722 217 b 400 -25 722 76 590 -18 l 394 -67 b 528 -175 475 -72 528 -110 b 401 -285 528 -242 478 -285 b 271 -211 347 -285 294 -254 l 314 -176 b 401 -229 329 -207 365 -229 b 472 -178 444 -229 472 -208 b 382 -118 472 -142 436 -118 l 333 -118 l 344 -24 b 25 224 168 -15 35 71 l 210 244 b 389 118 217 168 290 118 b 535 201 469 118 535 153 b 390 282 535 242 490 267 l 281 299 b 57 503 124 325 57 386 b 363 736 58 647 182 736 b 678 526 532 736 660 651 l 499 497 b 356 597 493 558 435 597 b 239 521 289 597 239 563 b 358 450 238 486 274 465 l 467 432 b 722 217 646 400 722 336 "},"Š":{"ha":928,"x_min":0,"x_max":0,"o":"m 239 1250 l 276 1292 l 451 1139 l 631 1292 l 667 1250 l 490 1097 l 415 1097 m 481 -35 b 31 301 236 -35 51 89 l 244 340 b 489 142 256 222 357 142 b 678 272 606 142 678 199 b 514 392 678 332 629 367 l 376 418 b 67 703 163 460 67 547 b 457 1024 67 897 229 1024 b 844 740 663 1024 819 911 l 635 693 b 454 847 625 786 551 847 b 296 726 357 847 296 796 b 442 613 296 667 340 632 l 581 586 b 906 299 803 549 906 457 b 481 -35 906 93 732 -35 "},"š":{"ha":747,"x_min":0,"x_max":0,"o":"m 114 1014 l 151 1056 l 358 875 l 567 1056 l 603 1014 l 396 833 l 321 833 m 378 -25 b 25 224 185 -25 35 61 l 210 244 b 389 118 217 168 290 118 b 535 201 469 118 535 153 b 390 282 535 242 490 267 l 281 299 b 57 503 124 325 57 386 b 363 736 58 647 182 736 b 678 526 532 736 660 651 l 499 497 b 356 597 493 558 435 597 b 239 521 289 597 239 563 b 358 450 238 486 274 465 l 467 432 b 722 217 646 400 722 336 b 378 -25 722 71 581 -25 "},"Ș":{"ha":928,"x_min":0,"x_max":0,"o":"m 481 -35 b 31 301 236 -35 51 89 l 244 340 b 489 142 256 222 357 142 b 678 272 606 142 678 199 b 514 392 678 332 629 367 l 376 418 b 67 703 163 460 67 547 b 457 1024 67 897 229 1024 b 844 740 663 1024 819 911 l 635 693 b 454 847 625 786 551 847 b 296 726 357 847 296 796 b 442 613 296 667 340 632 l 581 586 b 906 299 803 549 906 457 b 481 -35 906 93 732 -35 m 378 -321 b 515 -253 438 -333 506 -321 b 363 -176 443 -287 363 -247 b 457 -92 363 -128 401 -92 b 574 -232 525 -92 574 -149 b 367 -372 574 -344 486 -396 "},"ș":{"ha":747,"x_min":0,"x_max":0,"o":"m 378 -25 b 25 224 185 -25 35 61 l 210 244 b 389 118 217 168 290 118 b 535 201 469 118 535 153 b 390 282 535 242 490 267 l 281 299 b 57 503 124 325 57 386 b 363 736 58 647 182 736 b 678 526 532 736 660 651 l 499 497 b 356 597 493 558 435 597 b 239 521 289 597 239 563 b 358 450 238 486 274 465 l 467 432 b 722 217 646 400 722 336 b 378 -25 722 71 581 -25 m 290 -321 b 428 -253 350 -333 418 -321 b 275 -176 356 -287 275 -247 b 369 -92 275 -128 314 -92 b 486 -232 438 -92 486 -149 b 279 -372 486 -344 399 -396 "},"Ŝ":{"ha":928,"x_min":0,"x_max":0,"o":"m 239 1125 l 415 1278 l 490 1278 l 667 1125 l 631 1083 l 451 1236 l 276 1083 m 481 -35 b 31 301 236 -35 51 89 l 244 340 b 489 142 256 222 357 142 b 678 272 606 142 678 199 b 514 392 678 332 629 367 l 376 418 b 67 703 163 460 67 547 b 457 1024 67 897 229 1024 b 844 740 663 1024 819 911 l 635 693 b 454 847 625 786 551 847 b 296 726 357 847 296 796 b 442 613 296 667 340 632 l 581 586 b 906 299 803 549 906 457 b 481 -35 906 93 732 -35 "},"ŝ":{"ha":747,"x_min":0,"x_max":0,"o":"m 118 861 l 325 1042 l 400 1042 l 607 861 l 571 819 l 363 1000 l 156 819 m 378 -25 b 25 224 185 -25 35 61 l 210 244 b 389 118 217 168 290 118 b 535 201 469 118 535 153 b 390 282 535 242 490 267 l 281 299 b 57 503 124 325 57 386 b 363 736 58 647 182 736 b 678 526 532 736 660 651 l 499 497 b 356 597 493 558 435 597 b 239 521 289 597 239 563 b 358 450 238 486 274 465 l 467 432 b 722 217 646 400 722 336 b 378 -25 722 71 581 -25 "},"Ť":{"ha":868,"x_min":0,"x_max":0,"o":"m 221 1250 l 258 1292 l 433 1139 l 613 1292 l 649 1250 l 472 1097 l 397 1097 m 317 789 l 19 789 l 19 989 l 847 989 l 847 789 l 550 789 l 550 0 l 317 0 "},"ť":{"ha":692,"x_min":0,"x_max":0,"o":"m 442 838 b 579 906 501 825 569 838 b 426 982 507 871 426 911 b 521 1067 426 1031 465 1067 b 638 926 589 1067 638 1010 b 431 786 638 814 550 763 m 418 -28 b 142 232 249 -28 142 75 l 142 553 l 7 553 l 7 711 l 142 711 l 142 907 l 351 953 l 350 711 l 639 711 l 639 553 l 350 553 l 351 265 b 461 140 351 188 399 140 b 607 242 525 140 575 175 l 681 118 b 418 -28 635 26 525 -28 "},"Ț":{"ha":868,"x_min":0,"x_max":0,"o":"m 317 789 l 19 789 l 19 989 l 847 989 l 847 789 l 550 789 l 550 0 l 317 0 m 350 -321 b 488 -253 410 -333 478 -321 b 335 -176 415 -287 335 -247 b 429 -92 335 -128 374 -92 b 546 -232 497 -92 546 -149 b 339 -372 546 -344 458 -396 "},"ț":{"ha":692,"x_min":0,"x_max":0,"o":"m 418 -28 b 142 232 249 -28 142 75 l 142 553 l 7 553 l 7 711 l 142 711 l 142 907 l 351 953 l 350 711 l 639 711 l 639 553 l 350 553 l 351 265 b 461 140 351 188 399 140 b 607 242 525 140 575 175 l 681 118 b 418 -28 635 26 525 -28 m 310 -321 b 447 -253 369 -333 438 -321 b 294 -176 375 -287 294 -247 b 389 -92 294 -128 333 -92 b 506 -232 457 -92 506 -149 b 299 -372 506 -344 418 -396 "},"Ţ":{"ha":868,"x_min":0,"x_max":0,"o":"m 461 0 l 453 -67 b 586 -175 533 -72 586 -110 b 460 -285 586 -242 536 -285 b 329 -211 406 -285 353 -254 l 372 -176 b 460 -229 388 -207 424 -229 b 531 -178 503 -229 531 -208 b 440 -118 531 -142 494 -118 l 392 -118 l 406 0 l 317 0 l 317 789 l 19 789 l 19 989 l 847 989 l 847 789 l 550 789 l 550 0 "},"ţ":{"ha":692,"x_min":0,"x_max":0,"o":"m 681 118 b 418 -28 635 26 525 -28 l 414 -67 b 547 -175 494 -72 547 -110 b 421 -285 547 -242 497 -285 b 290 -211 367 -285 314 -254 l 333 -176 b 421 -229 349 -207 385 -229 b 492 -178 464 -229 492 -208 b 401 -118 492 -142 456 -118 l 353 -118 l 364 -24 b 142 232 226 -4 142 93 l 142 553 l 7 553 l 7 711 l 142 711 l 142 907 l 351 953 l 350 711 l 639 711 l 639 553 l 350 553 l 351 265 b 461 140 351 188 399 140 b 607 242 525 140 575 175 l 681 118 "},"Ù":{"ha":1019,"x_min":0,"x_max":0,"o":"m 383 1256 l 426 1290 l 558 1117 l 515 1082 m 510 -35 b 67 390 242 -35 67 135 l 67 989 l 300 989 l 300 396 b 510 165 300 269 382 165 b 719 397 636 165 719 260 l 719 989 l 953 989 l 953 390 b 510 -35 953 135 778 -35 "},"ù":{"ha":808,"x_min":0,"x_max":0,"o":"m 240 1035 l 285 1069 l 444 868 l 401 833 m 290 -22 b 54 226 143 -22 54 71 l 54 711 l 263 711 l 263 286 b 383 153 263 204 310 153 b 542 319 475 153 542 219 l 542 711 l 751 711 l 751 0 l 575 0 l 543 121 l 542 121 b 290 -22 488 31 403 -22 "},"Ú":{"ha":1019,"x_min":0,"x_max":0,"o":"m 481 1117 l 613 1290 l 656 1256 l 524 1082 m 510 -35 b 67 390 242 -35 67 135 l 67 989 l 300 989 l 300 396 b 510 165 300 269 382 165 b 719 397 636 165 719 260 l 719 989 l 953 989 l 953 390 b 510 -35 953 135 778 -35 "},"ú":{"ha":808,"x_min":0,"x_max":0,"o":"m 363 868 l 522 1069 l 567 1035 l 406 833 m 290 -22 b 54 226 143 -22 54 71 l 54 711 l 263 711 l 263 286 b 383 153 263 204 310 153 b 542 319 475 153 542 219 l 542 711 l 751 711 l 751 0 l 575 0 l 543 121 l 542 121 b 290 -22 488 31 403 -22 "},"Û":{"ha":1019,"x_min":0,"x_max":0,"o":"m 296 1125 l 472 1278 l 547 1278 l 724 1125 l 688 1083 l 508 1236 l 333 1083 m 510 -35 b 67 390 242 -35 67 135 l 67 989 l 300 989 l 300 396 b 510 165 300 269 382 165 b 719 397 636 165 719 260 l 719 989 l 953 989 l 953 390 b 510 -35 953 135 778 -35 "},"û":{"ha":808,"x_min":0,"x_max":0,"o":"m 156 861 l 363 1042 l 438 1042 l 644 861 l 608 819 l 400 1000 l 193 819 m 290 -22 b 54 226 143 -22 54 71 l 54 711 l 263 711 l 263 286 b 383 153 263 204 310 153 b 542 319 475 153 542 219 l 542 711 l 751 711 l 751 0 l 575 0 l 543 121 l 542 121 b 290 -22 488 31 403 -22 "},"Ũ":{"ha":1019,"x_min":0,"x_max":0,"o":"m 617 1083 b 483 1169 554 1083 517 1131 b 400 1226 457 1200 432 1226 b 322 1097 354 1226 322 1172 l 267 1097 b 401 1282 267 1204 321 1282 b 529 1201 461 1282 496 1240 b 615 1139 556 1168 581 1139 b 696 1269 663 1139 696 1193 l 753 1269 b 617 1083 753 1161 696 1083 m 510 -35 b 67 390 242 -35 67 135 l 67 989 l 300 989 l 300 396 b 510 165 300 269 382 165 b 719 397 636 165 719 260 l 719 989 l 953 989 l 953 390 b 510 -35 953 135 778 -35 "},"ũ":{"ha":808,"x_min":0,"x_max":0,"o":"m 503 819 b 379 894 447 819 411 858 b 286 963 350 929 322 963 b 208 833 240 963 208 908 l 153 833 b 288 1018 153 940 207 1018 b 408 946 343 1018 378 982 b 503 875 439 911 465 875 b 583 1006 550 875 583 929 l 639 1006 b 503 819 639 897 582 819 m 290 -22 b 54 226 143 -22 54 71 l 54 711 l 263 711 l 263 286 b 383 153 263 204 310 153 b 542 319 475 153 542 219 l 542 711 l 751 711 l 751 0 l 575 0 l 543 121 l 542 121 b 290 -22 488 31 403 -22 "},"Ū":{"ha":1019,"x_min":0,"x_max":0,"o":"m 286 1161 l 732 1161 l 732 1106 l 286 1106 m 510 -35 b 67 390 242 -35 67 135 l 67 989 l 300 989 l 300 396 b 510 165 300 269 382 165 b 719 397 636 165 719 260 l 719 989 l 953 989 l 953 390 b 510 -35 953 135 778 -35 "},"ū":{"ha":808,"x_min":0,"x_max":0,"o":"m 175 883 l 621 883 l 621 828 l 175 828 m 290 -22 b 54 226 143 -22 54 71 l 54 711 l 263 711 l 263 286 b 383 153 263 204 310 153 b 542 319 475 153 542 219 l 542 711 l 751 711 l 751 0 l 575 0 l 543 121 l 542 121 b 290 -22 488 31 403 -22 "},"Ŭ":{"ha":1019,"x_min":0,"x_max":0,"o":"m 508 1097 b 314 1278 396 1097 314 1172 l 371 1278 b 508 1153 371 1206 428 1153 b 649 1278 589 1153 649 1206 l 703 1278 b 508 1097 703 1174 622 1097 m 510 -35 b 67 390 242 -35 67 135 l 67 989 l 300 989 l 300 396 b 510 165 300 269 382 165 b 719 397 636 165 719 260 l 719 989 l 953 989 l 953 390 b 510 -35 953 135 778 -35 "},"ŭ":{"ha":808,"x_min":0,"x_max":0,"o":"m 397 819 b 161 1042 260 819 161 913 l 218 1042 b 396 875 218 944 293 875 b 579 1042 501 875 579 944 l 633 1042 b 397 819 633 913 535 819 m 290 -22 b 54 226 143 -22 54 71 l 54 711 l 263 711 l 263 286 b 383 153 263 204 310 153 b 542 319 475 153 542 219 l 542 711 l 751 711 l 751 0 l 575 0 l 543 121 l 542 121 b 290 -22 488 31 403 -22 "},"Ů":{"ha":1019,"x_min":0,"x_max":0,"o":"m 510 1083 b 378 1215 433 1083 378 1139 b 510 1347 376 1292 432 1347 b 642 1215 586 1347 640 1292 b 510 1083 642 1139 586 1083 m 508 1139 b 585 1215 553 1139 585 1171 b 508 1292 585 1260 553 1292 b 432 1215 464 1292 432 1260 b 508 1139 432 1171 464 1139 m 510 -35 b 67 390 242 -35 67 135 l 67 989 l 300 989 l 300 396 b 510 165 300 269 382 165 b 719 397 636 165 719 260 l 719 989 l 953 989 l 953 390 b 510 -35 953 135 778 -35 "},"ů":{"ha":808,"x_min":0,"x_max":0,"o":"m 397 819 b 265 951 321 819 265 875 b 397 1083 265 1028 321 1083 b 529 951 474 1083 529 1028 b 397 819 529 875 475 819 m 396 875 b 472 951 442 875 472 907 b 396 1028 472 996 442 1028 b 319 951 353 1028 319 996 b 396 875 319 907 353 875 m 290 -22 b 54 226 143 -22 54 71 l 54 711 l 263 711 l 263 286 b 383 153 263 204 310 153 b 542 319 475 153 542 219 l 542 711 l 751 711 l 751 0 l 575 0 l 543 121 l 542 121 b 290 -22 488 31 403 -22 "},"Ű":{"ha":1019,"x_min":0,"x_max":0,"o":"m 360 1106 l 492 1279 l 535 1244 l 403 1071 m 586 1106 l 718 1279 l 761 1244 l 628 1071 m 510 -35 b 67 390 242 -35 67 135 l 67 989 l 300 989 l 300 396 b 510 165 300 269 382 165 b 719 397 636 165 719 260 l 719 989 l 953 989 l 953 390 b 510 -35 953 135 778 -35 "},"ű":{"ha":808,"x_min":0,"x_max":0,"o":"m 246 868 l 406 1069 l 450 1035 l 289 833 m 472 868 l 632 1069 l 675 1035 l 515 833 m 290 -22 b 54 226 143 -22 54 71 l 54 711 l 263 711 l 263 286 b 383 153 263 204 310 153 b 542 319 475 153 542 219 l 542 711 l 751 711 l 751 0 l 575 0 l 543 121 l 542 121 b 290 -22 488 31 403 -22 "},"Ü":{"ha":1019,"x_min":0,"x_max":0,"o":"m 333 1093 b 221 1206 268 1093 221 1139 b 333 1317 221 1269 268 1317 b 447 1206 399 1317 447 1269 b 333 1093 447 1139 399 1093 m 686 1093 b 574 1206 621 1093 574 1139 b 686 1317 574 1269 621 1317 b 799 1206 751 1317 799 1269 b 686 1093 799 1139 751 1093 m 510 -35 b 67 390 242 -35 67 135 l 67 989 l 300 989 l 300 396 b 510 165 300 269 382 165 b 719 397 636 165 719 260 l 719 989 l 953 989 l 953 390 b 510 -35 953 135 778 -35 "},"ü":{"ha":808,"x_min":0,"x_max":0,"o":"m 222 824 b 108 933 157 824 108 869 b 222 1040 108 996 157 1040 b 335 933 288 1040 335 996 b 222 824 335 869 288 824 m 575 824 b 463 933 510 824 463 869 b 575 1040 463 996 510 1040 b 688 933 640 1040 688 996 b 575 824 688 869 640 824 m 290 -22 b 54 226 143 -22 54 71 l 54 711 l 263 711 l 263 286 b 383 153 263 204 310 153 b 542 319 475 153 542 219 l 542 711 l 751 711 l 751 0 l 575 0 l 543 121 l 542 121 b 290 -22 488 31 403 -22 "},"Ų":{"ha":1019,"x_min":0,"x_max":0,"o":"m 953 989 l 953 390 b 644 -18 953 181 835 29 b 468 -165 536 -60 468 -96 b 536 -229 468 -204 494 -229 b 632 -179 565 -229 603 -210 l 671 -215 b 533 -285 635 -258 579 -285 b 411 -174 461 -285 413 -240 b 496 -35 410 -115 440 -71 b 67 390 235 -29 67 139 l 67 989 l 300 989 l 300 396 b 510 165 300 269 382 165 b 719 397 636 165 719 260 l 719 989 "},"ų":{"ha":808,"x_min":0,"x_max":0,"o":"m 751 711 l 751 0 l 750 0 b 521 -165 611 -49 521 -86 b 589 -229 521 -204 547 -229 b 685 -179 618 -229 656 -210 l 724 -215 b 586 -285 688 -258 632 -285 b 464 -174 514 -285 465 -240 b 613 0 463 -94 518 -43 l 575 0 l 543 121 l 542 121 b 290 -22 488 31 403 -22 b 54 226 143 -22 54 71 l 54 711 l 263 711 l 263 286 b 383 153 263 204 310 153 b 542 319 475 153 542 219 l 542 711 "},"Ẁ":{"ha":1564,"x_min":0,"x_max":0,"o":"m 656 1256 l 699 1290 l 831 1117 l 788 1082 m 8 989 l 244 989 l 446 219 l 449 219 l 633 989 l 932 989 l 1118 219 l 1121 219 l 1318 989 l 1556 989 l 1272 0 l 967 0 l 785 763 l 782 763 l 597 0 l 292 0 "},"ẁ":{"ha":1239,"x_min":0,"x_max":0,"o":"m 463 1035 l 507 1069 l 667 868 l 624 833 m 8 711 l 218 711 l 356 190 l 357 190 l 519 711 l 719 711 l 883 186 l 885 186 l 1021 711 l 1231 711 l 1014 0 l 774 0 l 621 499 l 618 499 l 468 0 l 228 0 "},"Ẃ":{"ha":1564,"x_min":0,"x_max":0,"o":"m 754 1117 l 886 1290 l 929 1256 l 797 1082 m 8 989 l 244 989 l 446 219 l 449 219 l 633 989 l 932 989 l 1118 219 l 1121 219 l 1318 989 l 1556 989 l 1272 0 l 967 0 l 785 763 l 782 763 l 597 0 l 292 0 "},"ẃ":{"ha":1239,"x_min":0,"x_max":0,"o":"m 585 868 l 744 1069 l 789 1035 l 628 833 m 8 711 l 218 711 l 356 190 l 357 190 l 519 711 l 719 711 l 883 186 l 885 186 l 1021 711 l 1231 711 l 1014 0 l 774 0 l 621 499 l 618 499 l 468 0 l 228 0 "},"Ŵ":{"ha":1564,"x_min":0,"x_max":0,"o":"m 569 1125 l 746 1278 l 821 1278 l 997 1125 l 961 1083 l 782 1236 l 607 1083 m 8 989 l 244 989 l 446 219 l 449 219 l 633 989 l 932 989 l 1118 219 l 1121 219 l 1318 989 l 1556 989 l 1272 0 l 967 0 l 785 763 l 782 763 l 597 0 l 292 0 "},"ŵ":{"ha":1239,"x_min":0,"x_max":0,"o":"m 378 861 l 585 1042 l 660 1042 l 867 861 l 831 819 l 622 1000 l 415 819 m 8 711 l 218 711 l 356 190 l 357 190 l 519 711 l 719 711 l 883 186 l 885 186 l 1021 711 l 1231 711 l 1014 0 l 774 0 l 621 499 l 618 499 l 468 0 l 228 0 "},"Ẅ":{"ha":1564,"x_min":0,"x_max":0,"o":"m 606 1093 b 493 1206 540 1093 493 1139 b 606 1317 493 1269 540 1317 b 719 1206 671 1317 719 1269 b 606 1093 719 1139 671 1093 m 958 1093 b 846 1206 893 1093 846 1139 b 958 1317 846 1269 893 1317 b 1071 1206 1024 1317 1071 1269 b 958 1093 1071 1139 1024 1093 m 8 989 l 244 989 l 446 219 l 449 219 l 633 989 l 932 989 l 1118 219 l 1121 219 l 1318 989 l 1556 989 l 1272 0 l 967 0 l 785 763 l 782 763 l 597 0 l 292 0 "},"ẅ":{"ha":1239,"x_min":0,"x_max":0,"o":"m 443 824 b 329 933 378 824 329 869 b 443 1040 329 996 378 1040 b 556 933 508 1040 556 996 b 443 824 556 869 508 824 m 796 824 b 683 933 731 824 683 869 b 796 1040 683 996 731 1040 b 908 933 861 1040 908 996 b 796 824 908 869 861 824 m 8 711 l 218 711 l 356 190 l 357 190 l 519 711 l 719 711 l 883 186 l 885 186 l 1021 711 l 1231 711 l 1014 0 l 774 0 l 621 499 l 618 499 l 468 0 l 228 0 "},"Ỳ":{"ha":943,"x_min":0,"x_max":0,"o":"m 347 1256 l 390 1290 l 522 1117 l 479 1082 m 357 344 l 8 989 l 256 989 l 475 550 l 476 550 l 685 989 l 935 989 l 592 344 l 592 0 l 357 0 "},"ỳ":{"ha":811,"x_min":0,"x_max":0,"o":"m 250 1035 l 294 1069 l 454 868 l 411 833 m 339 -319 b -15 -182 186 -319 54 -268 l 72 -35 b 322 -144 129 -104 222 -144 b 546 50 460 -144 546 -71 l 546 103 l 544 103 b 321 -32 499 19 414 -32 b 56 251 157 -32 56 82 l 56 711 l 265 711 l 265 285 b 394 140 265 199 313 140 b 544 296 478 140 544 204 l 544 711 l 753 711 l 754 44 b 339 -319 754 -181 590 -319 "},"Ý":{"ha":943,"x_min":0,"x_max":0,"o":"m 444 1117 l 576 1290 l 619 1256 l 488 1082 m 357 344 l 8 989 l 256 989 l 475 550 l 476 550 l 685 989 l 935 989 l 592 344 l 592 0 l 357 0 "},"ý":{"ha":811,"x_min":0,"x_max":0,"o":"m 372 868 l 532 1069 l 576 1035 l 415 833 m 339 -319 b -15 -182 186 -319 54 -268 l 72 -35 b 322 -144 129 -104 222 -144 b 546 50 460 -144 546 -71 l 546 103 l 544 103 b 321 -32 499 19 414 -32 b 56 251 157 -32 56 82 l 56 711 l 265 711 l 265 285 b 394 140 265 199 313 140 b 544 296 478 140 544 204 l 544 711 l 753 711 l 754 44 b 339 -319 754 -181 590 -319 "},"Ÿ":{"ha":943,"x_min":0,"x_max":0,"o":"m 297 1093 b 185 1206 232 1093 185 1139 b 297 1317 185 1269 232 1317 b 411 1206 363 1317 411 1269 b 297 1093 411 1139 363 1093 m 650 1093 b 538 1206 585 1093 538 1139 b 650 1317 538 1269 585 1317 b 763 1206 715 1317 763 1269 b 650 1093 763 1139 715 1093 m 357 344 l 8 989 l 256 989 l 475 550 l 476 550 l 685 989 l 935 989 l 592 344 l 592 0 l 357 0 "},"ÿ":{"ha":811,"x_min":0,"x_max":0,"o":"m 231 824 b 117 933 165 824 117 869 b 231 1040 117 996 165 1040 b 343 933 296 1040 343 996 b 231 824 343 869 296 824 m 583 824 b 471 933 518 824 471 869 b 583 1040 471 996 518 1040 b 696 933 649 1040 696 996 b 583 824 696 869 649 824 m 339 -319 b -15 -182 186 -319 54 -268 l 72 -35 b 322 -144 129 -104 222 -144 b 546 50 460 -144 546 -71 l 546 103 l 544 103 b 321 -32 499 19 414 -32 b 56 251 157 -32 56 82 l 56 711 l 265 711 l 265 285 b 394 140 265 199 313 140 b 544 296 478 140 544 204 l 544 711 l 753 711 l 754 44 b 339 -319 754 -181 590 -319 "},"Ŷ":{"ha":943,"x_min":0,"x_max":0,"o":"m 260 1125 l 436 1278 l 511 1278 l 688 1125 l 651 1083 l 472 1236 l 297 1083 m 357 344 l 8 989 l 256 989 l 475 550 l 476 550 l 685 989 l 935 989 l 592 344 l 592 0 l 357 0 "},"ŷ":{"ha":811,"x_min":0,"x_max":0,"o":"m 165 861 l 372 1042 l 447 1042 l 654 861 l 618 819 l 410 1000 l 203 819 m 339 -319 b -15 -182 186 -319 54 -268 l 72 -35 b 322 -144 129 -104 222 -144 b 546 50 460 -144 546 -71 l 546 103 l 544 103 b 321 -32 499 19 414 -32 b 56 251 157 -32 56 82 l 56 711 l 265 711 l 265 285 b 394 140 265 199 313 140 b 544 296 478 140 544 204 l 544 711 l 753 711 l 754 44 b 339 -319 754 -181 590 -319 "},"Ź":{"ha":865,"x_min":0,"x_max":0,"o":"m 417 1117 l 549 1290 l 592 1256 l 460 1082 m 32 204 l 561 806 l 46 806 l 46 989 l 819 989 l 819 782 l 292 183 l 833 183 l 833 0 l 32 0 "},"ź":{"ha":724,"x_min":0,"x_max":0,"o":"m 332 868 l 492 1069 l 536 1035 l 375 833 m 31 183 l 439 551 l 44 551 l 44 711 l 678 711 l 678 528 l 269 160 l 692 160 l 692 0 l 31 0 "},"Ż":{"ha":865,"x_min":0,"x_max":0,"o":"m 446 1093 b 328 1208 378 1093 328 1142 b 446 1324 328 1276 378 1324 b 565 1208 515 1324 565 1276 b 446 1093 565 1142 515 1093 m 32 204 l 561 806 l 46 806 l 46 989 l 819 989 l 819 782 l 292 183 l 833 183 l 833 0 l 32 0 "},"ż":{"ha":724,"x_min":0,"x_max":0,"o":"m 367 822 b 249 938 299 822 249 871 b 367 1053 249 1004 299 1053 b 486 938 436 1053 486 1004 b 367 822 486 871 436 822 m 31 183 l 439 551 l 44 551 l 44 711 l 678 711 l 678 528 l 269 160 l 692 160 l 692 0 l 31 0 "},"Ž":{"ha":865,"x_min":0,"x_max":0,"o":"m 232 1250 l 269 1292 l 444 1139 l 624 1292 l 660 1250 l 483 1097 l 408 1097 m 32 204 l 561 806 l 46 806 l 46 989 l 819 989 l 819 782 l 292 183 l 833 183 l 833 0 l 32 0 "},"ž":{"ha":724,"x_min":0,"x_max":0,"o":"m 122 1014 l 160 1056 l 367 875 l 575 1056 l 611 1014 l 404 833 l 329 833 m 31 183 l 439 551 l 44 551 l 44 711 l 678 711 l 678 528 l 269 160 l 692 160 l 692 0 l 31 0 "},"ẞ":{"ha":936,"x_min":0,"x_max":0,"o":"m 768 414 b 900 210 861 358 900 297 b 629 -18 900 69 792 -18 b 356 157 493 -18 386 50 l 450 268 b 588 149 464 197 515 149 b 668 218 629 149 668 174 b 590 308 668 253 644 281 l 511 349 b 385 515 422 397 385 446 b 599 696 385 604 460 665 b 604 735 601 708 604 722 b 476 839 604 806 550 839 b 300 660 371 839 300 769 l 300 0 l 67 0 l 67 663 b 472 1014 67 878 226 1014 b 835 735 686 1014 835 919 b 803 593 835 686 824 632 b 626 522 679 588 626 560 b 682 463 626 501 644 482 l 768 414 "},"ß":{"ha":888,"x_min":0,"x_max":0,"o":"m 718 415 b 851 210 808 363 851 303 b 590 -18 851 75 744 -18 b 333 157 461 -18 363 50 l 428 268 b 556 151 442 197 492 151 b 639 218 606 151 639 174 b 568 307 639 254 618 279 l 486 351 b 363 517 399 399 363 449 b 571 728 363 622 440 688 b 578 774 575 744 578 760 b 444 878 578 843 525 878 b 282 699 346 878 282 808 l 282 0 l 67 0 l 67 701 b 447 1053 67 913 215 1053 b 790 774 643 1053 790 954 b 758 624 790 725 779 671 b 583 529 628 603 583 572 b 646 458 583 504 603 483 l 718 415 "},"&":{"ha":1060,"x_min":0,"x_max":0,"o":"m 1060 0 l 813 0 l 719 85 b 390 -29 618 10 503 -29 b 32 261 179 -29 32 81 b 231 535 32 389 93 472 b 156 736 188 592 154 661 b 467 1013 156 900 288 1013 b 779 746 638 1013 779 922 b 529 483 779 622 704 542 l 729 300 b 856 499 779 356 824 424 l 983 385 b 849 193 946 314 901 249 m 472 854 b 350 732 401 854 350 806 b 417 588 350 683 372 635 b 599 736 544 625 599 671 b 472 854 599 804 543 854 m 415 129 b 600 196 479 129 542 153 l 353 419 b 236 269 271 390 236 346 b 415 129 236 189 311 129 "},"!":{"ha":378,"x_min":0,"x_max":0,"o":"m 81 722 l 81 989 l 297 989 l 297 722 l 243 303 l 133 303 m 189 -17 b 64 106 115 -17 64 35 b 189 226 64 176 115 226 b 314 106 261 226 314 176 b 189 -17 314 35 261 -17 "},"¡":{"ha":378,"x_min":0,"x_max":0,"o":"m 189 742 b 314 619 261 742 314 690 b 189 499 314 549 261 499 b 64 619 117 499 64 549 b 189 742 64 690 117 742 m 297 3 l 297 -264 l 81 -264 l 81 3 l 135 424 l 243 424 "},"?":{"ha":792,"x_min":0,"x_max":0,"o":"m 279 301 b 404 561 279 438 319 503 l 444 588 b 528 711 494 622 528 658 b 386 836 528 786 467 836 b 225 661 297 836 235 774 l 14 707 b 394 1024 29 901 188 1024 b 756 728 599 1024 756 901 b 607 493 756 615 692 544 l 561 468 b 471 301 497 428 471 388 l 279 301 m 374 -17 b 249 104 301 -17 249 33 b 374 226 249 175 301 226 b 500 104 447 226 500 175 b 374 -17 500 33 447 -17 "},"¿":{"ha":792,"x_min":0,"x_max":0,"o":"m 396 742 b 521 619 468 742 521 690 b 396 499 521 549 468 499 b 269 619 322 499 269 549 b 396 742 269 690 322 742 m 490 424 b 365 164 490 288 450 222 l 325 138 b 242 13 275 101 242 65 b 383 -111 242 -61 303 -111 b 544 63 472 -111 535 -49 l 756 17 b 375 -300 740 -176 582 -300 b 14 -3 171 -300 14 -176 b 164 231 14 110 78 179 l 208 257 b 299 424 272 296 299 338 l 490 424 "},".":{"ha":338,"x_min":0,"x_max":0,"o":"m 168 -17 b 43 106 96 -17 43 35 b 168 226 43 176 96 226 b 294 106 242 226 294 176 b 168 -17 294 35 242 -17 "},",":{"ha":357,"x_min":0,"x_max":0,"o":"m 58 -167 b 254 4 163 -194 247 -118 b 60 104 154 -47 60 14 b 181 225 60 175 113 225 b 313 40 258 225 313 158 b 44 -219 314 -147 200 -258 "},":":{"ha":338,"x_min":0,"x_max":0,"o":"m 168 500 b 43 622 96 500 43 551 b 168 743 43 693 96 743 b 294 622 242 743 294 693 b 168 500 294 551 242 500 m 168 -17 b 43 106 96 -17 43 35 b 168 226 43 176 96 226 b 294 106 242 226 294 176 b 168 -17 294 35 242 -17 "},";":{"ha":357,"x_min":0,"x_max":0,"o":"m 185 500 b 60 622 113 500 60 551 b 185 743 60 693 113 743 b 311 622 258 743 311 693 b 185 500 311 551 258 500 m 58 -167 b 254 4 164 -194 249 -118 b 61 104 154 -47 60 14 b 181 225 61 175 113 225 b 314 40 260 225 313 158 b 44 -219 315 -147 200 -258 "},"…":{"ha":967,"x_min":0,"x_max":0,"o":"m 168 -17 b 43 106 96 -17 43 35 b 168 226 43 176 96 226 b 294 106 242 226 294 176 b 168 -17 294 35 242 -17 m 482 -17 b 358 106 410 -17 358 35 b 482 226 358 176 410 226 b 608 106 556 226 608 176 b 482 -17 608 35 556 -17 m 799 -17 b 674 106 725 -17 674 35 b 799 226 674 176 725 226 b 924 106 871 226 924 176 b 799 -17 924 35 871 -17 "},"·":{"ha":338,"x_min":0,"x_max":0,"o":"m 168 293 b 43 414 96 293 43 343 b 168 536 43 485 96 536 b 294 414 242 536 294 485 b 168 293 294 343 242 293 "},"•":{"ha":451,"x_min":0,"x_max":0,"o":"m 225 254 b 43 431 119 254 43 328 b 225 607 43 533 119 607 b 407 431 332 607 407 533 b 225 254 407 328 332 254 "},"-":{"ha":593,"x_min":0,"x_max":0,"o":"m 57 447 l 535 447 l 535 300 l 57 300 "},"–":{"ha":888,"x_min":0,"x_max":0,"o":"m 57 403 l 831 403 l 831 347 l 57 347 "},"—":{"ha":1340,"x_min":0,"x_max":0,"o":"m 57 403 l 1283 403 l 1283 347 l 57 347 "},"_":{"ha":694,"x_min":0,"x_max":0,"o":"m 0 0 l 694 0 l 694 -56 l 0 -56 "},"'":{"ha":156,"x_min":0,"x_max":0,"o":"m 51 989 l 107 989 l 107 594 l 50 594 "},"‚":{"ha":357,"x_min":0,"x_max":0,"o":"m 58 -167 b 254 4 163 -194 247 -118 b 60 104 154 -47 60 14 b 181 225 60 175 113 225 b 313 40 258 225 313 158 b 44 -219 314 -147 200 -258 "},"‘":{"ha":357,"x_min":0,"x_max":0,"o":"m 299 964 b 103 792 193 992 108 915 b 296 692 203 844 297 782 b 176 571 296 621 244 571 b 43 756 97 571 44 638 b 313 1017 42 944 157 1054 "},"’":{"ha":357,"x_min":0,"x_max":0,"o":"m 58 632 b 254 803 163 604 247 681 b 60 904 154 751 60 813 b 181 1024 60 974 113 1024 b 313 840 258 1024 313 958 b 44 579 314 651 200 542 "},"\"":{"ha":335,"x_min":0,"x_max":0,"o":"m 57 989 l 113 989 l 113 594 l 56 594 m 224 989 l 279 989 l 279 594 l 222 594 "},"“":{"ha":665,"x_min":0,"x_max":0,"o":"m 299 964 b 103 792 193 992 108 915 b 296 692 203 844 297 782 b 176 571 296 621 244 571 b 43 756 97 571 44 638 b 313 1017 42 944 157 1054 m 607 964 b 411 792 501 992 418 915 b 604 692 511 844 606 782 b 485 571 604 621 553 571 b 351 756 406 571 353 638 b 621 1017 351 944 465 1054 "},"”":{"ha":665,"x_min":0,"x_max":0,"o":"m 58 632 b 254 803 163 604 247 681 b 60 904 154 751 60 813 b 181 1024 60 974 113 1024 b 313 840 258 1024 313 958 b 44 579 314 651 200 542 m 367 632 b 563 803 471 604 556 681 b 368 904 463 751 368 813 b 489 1024 368 974 421 1024 b 621 840 567 1024 621 958 b 353 579 622 651 508 542 "},"„":{"ha":665,"x_min":0,"x_max":0,"o":"m 58 -167 b 254 4 163 -194 247 -118 b 60 104 154 -47 60 14 b 181 225 60 175 113 225 b 313 40 258 225 313 158 b 44 -219 314 -147 200 -258 m 367 -167 b 563 4 471 -194 556 -118 b 368 104 463 -47 368 14 b 489 225 368 175 421 225 b 621 40 567 225 621 158 b 353 -219 622 -147 508 -258 "},"(":{"ha":313,"x_min":0,"x_max":0,"o":"m 264 -264 b 43 386 136 -122 44 156 b 264 1044 42 622 133 900 l 307 1008 b 99 388 183 864 97 601 b 307 -228 100 178 186 -86 l 264 -264 "},")":{"ha":313,"x_min":0,"x_max":0,"o":"m 6 -228 b 214 388 138 -72 213 178 b 6 1008 215 601 140 850 l 49 1044 b 269 386 192 886 271 622 b 49 -264 268 156 189 -108 "},"[":{"ha":318,"x_min":0,"x_max":0,"o":"m 78 1044 l 313 1044 l 313 989 l 135 989 l 135 -208 l 313 -208 l 313 -264 l 78 -264 "},"]":{"ha":318,"x_min":0,"x_max":0,"o":"m 6 -264 l 6 -208 l 183 -208 l 183 989 l 6 989 l 6 1044 l 240 1044 l 240 -264 "},"{":{"ha":414,"x_min":0,"x_max":0,"o":"m 282 -264 b 158 -125 208 -264 158 -208 l 158 242 b 71 350 158 306 124 347 l 43 351 l 43 439 l 71 440 b 158 550 124 443 158 485 l 158 906 b 283 1044 158 989 208 1044 l 408 1044 l 408 989 l 283 989 b 214 906 242 989 214 956 l 214 536 b 103 397 214 460 169 404 l 103 394 b 214 256 169 388 214 332 l 214 -125 b 283 -208 214 -175 242 -208 l 408 -208 l 407 -264 l 282 -264 "},"}":{"ha":414,"x_min":0,"x_max":0,"o":"m 7 -264 l 6 -208 l 131 -208 b 200 -125 172 -208 200 -175 l 200 256 b 311 394 200 332 244 388 l 311 397 b 200 536 244 404 200 460 l 200 906 b 131 989 200 956 172 989 l 6 989 l 6 1044 l 131 1044 b 256 906 206 1044 256 989 l 256 550 b 343 440 256 485 290 443 l 371 439 l 371 351 l 343 350 b 256 242 290 347 256 306 l 256 -125 b 132 -264 256 -208 206 -264 "},"/":{"ha":489,"x_min":0,"x_max":0,"o":"m 6 -318 l 429 1007 l 483 989 l 58 -333 "},"|":{"ha":210,"x_min":0,"x_max":0,"o":"m 78 1031 l 133 1031 l 133 -319 l 78 -319 "},"\\":{"ha":489,"x_min":0,"x_max":0,"o":"m 7 989 l 61 1007 l 483 -318 l 432 -333 "},"«":{"ha":650,"x_min":0,"x_max":0,"o":"m 32 356 l 325 725 l 367 690 l 103 356 l 368 21 l 325 -14 m 282 356 l 574 725 l 617 690 l 353 356 l 617 21 l 574 -14 "},"»":{"ha":650,"x_min":0,"x_max":0,"o":"m 32 21 l 297 356 l 33 690 l 75 725 l 368 356 l 75 -14 m 282 21 l 547 356 l 283 690 l 325 725 l 618 356 l 325 -14 "},"‹":{"ha":400,"x_min":0,"x_max":0,"o":"m 32 356 l 325 725 l 367 690 l 103 356 l 368 21 l 325 -14 "},"›":{"ha":400,"x_min":0,"x_max":0,"o":"m 32 21 l 297 356 l 33 690 l 75 725 l 368 356 l 75 -14 "},"*":{"ha":629,"x_min":0,"x_max":0,"o":"m 288 565 b 228 600 288 606 263 621 l 71 510 l 43 558 l 199 649 b 199 718 233 669 233 697 l 43 808 l 71 857 l 228 767 b 288 801 263 746 288 761 l 288 982 l 343 982 l 343 801 b 403 767 343 761 368 746 l 560 857 l 588 808 l 431 718 b 431 649 396 697 396 669 l 588 558 l 560 510 l 403 600 b 343 565 368 621 343 606 l 343 385 l 288 385 "},"#":{"ha":1236,"x_min":0,"x_max":0,"o":"m 272 0 l 364 339 l 32 339 l 32 394 l 379 394 l 450 658 l 101 658 l 101 714 l 465 714 l 549 1022 l 603 1008 l 524 714 l 790 714 l 872 1022 l 925 1007 l 847 714 l 1201 714 l 1203 658 l 832 658 l 763 394 l 1133 394 l 1132 339 l 747 339 l 654 -14 l 600 0 l 690 339 l 422 339 l 326 -14 m 706 394 l 775 658 l 508 658 l 436 394 "},"+":{"ha":768,"x_min":0,"x_max":0,"o":"m 285 424 l 57 424 l 57 583 l 285 583 l 285 806 l 483 806 l 483 583 l 710 583 l 710 424 l 483 424 l 483 194 l 285 194 "},"−":{"ha":685,"x_min":0,"x_max":0,"o":"m 57 589 l 626 589 l 626 418 l 57 418 "},"±":{"ha":768,"x_min":0,"x_max":0,"o":"m 296 522 l 57 522 l 57 672 l 296 672 l 296 817 l 471 817 l 471 672 l 710 672 l 710 522 l 471 522 l 471 372 l 296 372 m 58 264 l 711 264 l 711 208 l 58 208 "},"×":{"ha":617,"x_min":0,"x_max":0,"o":"m 58 367 l 190 504 l 57 642 l 178 761 l 308 625 l 439 761 l 560 642 l 428 504 l 560 367 l 440 246 l 308 382 l 178 246 "},"÷":{"ha":740,"x_min":0,"x_max":0,"o":"m 369 661 b 257 774 304 661 257 708 b 369 886 257 839 304 886 b 483 774 436 886 483 839 b 369 661 483 708 436 661 m 57 521 l 683 521 l 683 465 l 57 465 m 369 100 b 257 213 304 100 257 147 b 369 325 257 278 304 325 b 483 213 436 325 483 278 b 369 100 483 147 436 100 "},"<":{"ha":642,"x_min":0,"x_max":0,"o":"m 57 360 l 57 589 l 522 811 l 585 647 l 179 475 l 585 300 l 522 136 "},">":{"ha":642,"x_min":0,"x_max":0,"o":"m 585 589 l 585 358 l 119 136 l 57 300 l 463 474 l 57 647 l 119 811 "},"≤":{"ha":629,"x_min":0,"x_max":0,"o":"m 57 467 l 57 671 l 540 821 l 572 679 l 181 569 l 572 458 l 542 318 m 57 253 l 572 253 l 572 197 l 57 197 "},"≥":{"ha":629,"x_min":0,"x_max":0,"o":"m 57 458 l 449 569 l 57 679 l 89 821 l 572 671 l 572 467 l 88 318 m 57 197 l 57 253 l 572 253 l 572 197 "},"=":{"ha":768,"x_min":0,"x_max":0,"o":"m 57 711 l 710 711 l 710 564 l 57 564 m 57 422 l 710 422 l 710 275 l 57 275 "},"≠":{"ha":768,"x_min":0,"x_max":0,"o":"m 447 564 l 397 422 l 710 422 l 710 275 l 346 275 l 244 -18 l 192 -3 l 288 275 l 57 275 l 57 422 l 339 422 l 388 564 l 57 564 l 57 711 l 439 711 l 535 989 l 589 971 l 499 711 l 710 711 l 710 564 "},"¬":{"ha":879,"x_min":0,"x_max":0,"o":"m 650 488 l 57 488 l 57 650 l 822 650 l 822 224 l 650 224 "},"°":{"ha":621,"x_min":0,"x_max":0,"o":"m 310 467 b 32 743 149 467 31 583 b 310 1022 32 906 150 1022 b 588 743 471 1022 588 906 b 310 467 588 582 471 467 m 311 522 b 532 743 439 522 532 615 b 311 967 532 872 439 967 b 88 743 181 967 88 872 b 311 522 88 615 182 522 "},"%":{"ha":1329,"x_min":0,"x_max":0,"o":"m 286 18 l 1010 1036 l 1056 1004 l 332 -14 m 310 467 b 32 743 149 467 31 583 b 310 1022 32 906 150 1022 b 588 743 471 1022 588 906 b 310 467 588 582 471 467 m 311 601 b 453 743 394 601 453 661 b 311 888 453 826 394 888 b 168 743 228 888 168 826 b 311 601 168 661 229 601 m 1018 -19 b 740 257 857 -19 740 97 b 1018 536 742 419 858 536 b 1296 257 1179 536 1296 419 b 1018 -19 1296 96 1179 -19 m 1019 115 b 1161 257 1103 115 1161 175 b 1019 401 1161 340 1103 401 b 876 257 936 401 876 340 b 1019 115 876 175 936 115 "},"‰":{"ha":2011,"x_min":0,"x_max":0,"o":"m 286 18 l 1010 1036 l 1056 1004 l 332 -14 m 310 467 b 32 743 149 467 31 583 b 310 1022 32 906 150 1022 b 588 743 471 1022 588 906 b 310 467 588 582 471 467 m 311 601 b 453 743 394 601 453 661 b 311 888 453 826 394 888 b 168 743 228 888 168 826 b 311 601 168 661 229 601 m 1018 -19 b 740 257 857 -19 740 97 b 1018 536 742 419 858 536 b 1296 257 1179 536 1296 419 b 1018 -19 1296 96 1179 -19 m 1700 -19 b 1422 257 1539 -19 1421 97 b 1700 536 1422 419 1540 536 b 1978 257 1861 536 1978 419 b 1700 -19 1978 96 1861 -19 m 1019 115 b 1161 257 1103 115 1161 175 b 1019 401 1161 340 1103 401 b 876 257 936 401 876 340 b 1019 115 876 175 936 115 m 1701 115 b 1843 257 1785 115 1843 175 b 1701 401 1843 340 1785 401 b 1558 257 1618 401 1558 340 b 1701 115 1558 175 1618 115 "},"¤":{"ha":950,"x_min":0,"x_max":0,"o":"m 32 -32 l 186 122 b 114 347 140 183 114 260 b 186 572 114 435 140 511 l 33 725 l 72 764 l 222 614 b 475 708 286 674 374 708 b 728 614 576 708 664 674 l 878 764 l 917 725 l 765 571 b 836 347 810 511 836 433 b 765 124 836 261 810 183 l 917 -31 l 878 -69 l 728 81 b 475 -14 664 21 576 -14 b 222 81 374 -14 286 21 l 72 -69 m 475 160 b 664 347 585 160 664 238 b 475 535 664 456 585 535 b 288 347 367 535 288 456 b 475 160 288 238 367 160 "},"$":{"ha":928,"x_min":0,"x_max":0,"o":"m 906 299 b 488 -35 906 94 735 -32 l 488 -181 l 432 -181 l 432 -33 b 31 301 213 -18 50 103 l 244 340 b 432 147 254 240 329 167 l 432 407 l 376 418 b 67 703 163 460 67 547 b 432 1024 67 890 218 1014 l 432 1139 l 488 1139 l 488 1022 b 844 740 678 1013 821 903 l 635 693 b 488 844 626 775 568 832 l 488 604 l 581 586 b 906 299 803 549 906 457 m 296 726 b 432 614 296 668 338 635 l 432 846 b 296 726 347 839 296 790 m 489 142 b 678 272 606 142 678 199 b 514 392 678 332 629 367 l 488 397 l 488 142 l 489 142 "},"¢":{"ha":814,"x_min":0,"x_max":0,"o":"m 783 247 b 435 -28 747 83 614 -21 l 435 -181 l 379 -181 l 379 -26 b 32 356 172 -10 32 142 b 379 739 32 574 172 728 l 379 889 l 435 889 l 435 738 b 747 485 593 726 717 626 l 563 439 b 435 565 547 508 497 556 l 435 143 b 594 276 511 149 571 197 l 783 247 m 235 356 b 379 147 236 246 294 167 l 379 565 b 235 356 294 551 235 471 "},"€":{"ha":1240,"x_min":0,"x_max":0,"o":"m 1196 333 b 703 -35 1150 113 953 -35 b 174 399 419 -35 214 139 l 32 399 l 32 454 l 168 454 b 167 494 167 468 167 481 b 168 539 167 510 167 524 l 32 539 l 32 594 l 174 594 b 676 1024 214 853 408 1024 b 1142 671 925 1024 1096 879 l 926 617 b 678 824 894 739 810 824 b 413 594 544 824 444 733 l 819 594 l 818 539 l 403 539 b 401 494 403 525 401 510 b 403 454 401 481 401 467 l 818 454 l 819 399 l 413 399 b 706 165 447 258 558 165 b 979 383 839 165 949 251 "},"£":{"ha":857,"x_min":0,"x_max":0,"o":"m 32 192 b 185 481 126 225 185 296 l 46 481 l 46 536 l 185 536 l 186 710 b 496 1018 185 888 304 1018 b 824 721 683 1018 807 893 l 636 689 b 510 843 628 778 583 843 b 403 704 440 843 403 785 l 403 536 l 768 536 l 768 481 l 401 481 b 229 172 396 303 336 217 l 229 171 l 822 171 l 822 0 l 32 0 "},"¥":{"ha":971,"x_min":0,"x_max":0,"o":"m 372 196 l 85 196 l 85 251 l 372 251 l 372 314 l 85 314 l 85 369 l 351 369 l 8 989 l 264 989 l 489 535 l 704 989 l 964 989 l 624 369 l 889 369 l 889 314 l 606 314 l 606 251 l 889 251 l 889 196 l 606 196 l 606 0 l 372 0 "},"₤":{"ha":856,"x_min":0,"x_max":0,"o":"m 32 186 b 185 418 121 215 185 297 l 38 418 l 38 467 l 185 467 l 185 529 l 38 529 l 38 585 l 185 585 l 185 710 b 492 1017 185 888 307 1017 b 822 721 685 1017 804 892 l 633 690 b 513 842 624 778 585 842 b 403 697 440 842 401 781 l 403 585 l 768 585 l 768 529 l 403 529 l 403 467 l 768 467 l 768 411 l 401 411 b 229 160 401 294 329 200 l 229 158 l 822 158 l 822 0 l 32 0 "},"©":{"ha":1154,"x_min":0,"x_max":0,"o":"m 578 -35 b 43 499 268 -35 42 189 b 578 1035 43 810 271 1035 b 1113 499 888 1035 1113 810 b 578 -35 1113 188 888 -35 m 581 21 b 1057 497 856 21 1057 221 b 581 979 1057 776 856 979 b 99 497 299 979 99 776 b 581 21 99 221 301 21 m 589 119 b 204 503 361 119 204 276 b 574 886 204 729 356 886 b 919 632 749 886 886 783 l 729 586 b 579 715 710 668 649 715 b 414 503 485 715 413 628 b 594 290 414 376 492 290 b 761 424 672 290 735 342 l 956 394 b 589 119 918 225 778 119 "},"®":{"ha":1154,"x_min":0,"x_max":0,"o":"m 579 -35 b 43 499 269 -35 43 189 b 579 1035 43 810 272 1035 b 1113 499 888 1035 1113 810 b 579 -35 1113 188 888 -35 m 582 21 b 1057 497 856 21 1057 221 b 582 979 1057 776 856 979 b 99 497 300 979 99 776 b 582 21 99 221 303 21 m 332 869 l 599 869 b 865 643 769 869 865 781 b 725 447 865 549 817 479 l 863 144 l 686 144 l 572 424 l 490 424 l 490 144 l 332 144 m 592 549 b 708 643 663 549 708 586 b 592 739 708 700 663 739 l 490 739 l 490 549 "},"@":{"ha":1194,"x_min":0,"x_max":0,"o":"m 599 -237 b 43 324 269 -237 43 -14 b 599 901 43 676 272 901 b 1151 331 926 901 1151 690 b 925 -22 1151 71 1047 -22 b 749 97 829 -22 774 14 l 744 113 b 490 -22 699 29 607 -22 b 232 186 340 -22 232 63 b 543 419 232 308 338 396 l 685 435 b 743 490 718 439 743 458 b 611 583 743 543 682 583 b 451 454 521 583 460 521 l 253 492 b 607 739 265 632 404 739 b 947 457 814 739 947 628 l 947 147 b 992 85 947 103 965 85 b 1096 329 1028 85 1096 139 b 601 846 1096 657 894 846 b 99 322 300 846 99 643 b 601 -182 99 18 303 -182 b 842 -122 690 -182 772 -161 l 869 -171 b 599 -237 792 -214 700 -237 m 567 133 b 739 293 667 133 739 200 l 739 324 l 592 308 b 442 215 482 296 442 260 b 567 133 442 165 494 133 "},"™":{"ha":1538,"x_min":0,"x_max":0,"o":"m 208 844 l 19 844 l 19 989 l 574 989 l 574 844 l 383 844 l 383 389 l 208 389 m 632 989 l 857 989 l 1044 564 l 1232 989 l 1460 989 l 1460 389 l 1303 389 l 1303 806 l 1121 389 l 971 389 l 789 806 l 789 389 l 632 389 "},"§":{"ha":808,"x_min":0,"x_max":0,"o":"m 415 -25 b 43 207 214 -25 60 61 l 228 240 b 422 118 236 164 313 118 b 565 197 500 118 565 146 b 433 281 565 240 525 264 l 279 308 b 63 499 160 328 63 375 b 150 654 64 563 97 617 b 103 781 121 683 103 724 b 394 1011 103 918 225 1011 b 690 807 547 1011 674 942 l 517 778 b 394 872 510 832 458 872 b 290 793 332 872 290 836 b 363 729 290 758 313 739 l 521 701 b 753 507 628 685 751 632 b 683 361 753 450 726 400 b 767 211 732 328 767 282 b 415 -25 767 58 610 -25 m 508 418 b 564 483 543 431 564 454 b 461 556 564 517 528 543 l 300 586 b 239 514 264 572 239 546 b 322 450 238 479 265 460 l 508 418 "},"¶":{"ha":1017,"x_min":0,"x_max":0,"o":"m 347 422 b 32 706 157 422 31 536 b 347 989 33 875 160 989 l 983 989 l 983 839 l 850 839 l 850 -294 l 667 -294 l 667 839 l 531 839 l 531 -294 l 347 -294 "},"^":{"ha":719,"x_min":0,"x_max":0,"o":"m 32 619 l 240 989 l 482 989 l 688 621 l 525 556 l 361 863 l 197 556 "},"~":{"ha":907,"x_min":0,"x_max":0,"o":"m 874 414 b 631 258 821 322 713 258 b 435 333 563 258 497 296 b 261 408 372 371 314 408 b 121 331 211 408 158 375 l 32 426 b 281 583 85 518 197 583 b 492 497 354 583 425 538 b 642 433 546 464 596 433 b 785 511 696 433 751 465 "},"`":{"ha":271,"x_min":0,"x_max":0,"o":"m 33 1035 l 78 1069 l 238 868 l 194 833 "},"´":{"ha":271,"x_min":0,"x_max":0,"o":"m 33 868 l 193 1069 l 238 1035 l 76 833 "},"¨":{"ha":646,"x_min":0,"x_max":0,"o":"m 147 824 b 33 933 82 824 33 869 b 147 1040 33 996 82 1040 b 260 933 213 1040 260 996 b 147 824 260 869 213 824 m 500 824 b 388 933 435 824 388 869 b 500 1040 388 996 435 1040 b 613 933 565 1040 613 996 b 500 824 613 869 565 824 "},"¯":{"ha":531,"x_min":0,"x_max":0,"o":"m 43 883 l 489 883 l 489 828 l 43 828 "},"¸":{"ha":324,"x_min":0,"x_max":0,"o":"m 165 -285 b 35 -211 111 -285 58 -254 l 78 -176 b 165 -229 93 -207 129 -229 b 236 -178 208 -229 236 -208 b 146 -118 236 -142 200 -118 l 97 -118 l 111 3 l 167 3 l 158 -67 b 292 -175 239 -72 292 -110 b 165 -285 292 -242 242 -285 "},"ˆ":{"ha":557,"x_min":0,"x_max":0,"o":"m 33 861 l 240 1042 l 315 1042 l 522 861 l 486 819 l 278 1000 l 71 819 "},"ˇ":{"ha":557,"x_min":0,"x_max":0,"o":"m 33 1014 l 71 1056 l 278 875 l 486 1056 l 522 1014 l 315 833 l 240 833 "},"˘":{"ha":540,"x_min":0,"x_max":0,"o":"m 269 819 b 33 1042 132 819 33 913 l 90 1042 b 268 875 90 944 165 875 b 451 1042 374 875 451 944 l 506 1042 b 269 819 506 913 407 819 "},"˙":{"ha":307,"x_min":0,"x_max":0,"o":"m 153 822 b 35 938 85 822 35 871 b 153 1053 35 1004 85 1053 b 272 938 222 1053 272 1004 b 153 822 272 871 222 822 "},"":{"ha":0,"x_min":0,"x_max":0,"o":"m -229 -321 b -92 -253 -169 -333 -101 -321 b -244 -176 -164 -287 -244 -247 b -150 -92 -244 -128 -206 -92 b -33 -232 -82 -92 -33 -149 b -240 -372 -33 -344 -121 -396 "},"˚":{"ha":332,"x_min":0,"x_max":0,"o":"m 165 819 b 33 951 89 819 33 875 b 165 1083 33 1028 89 1083 b 297 951 242 1083 297 1028 b 165 819 297 875 243 819 m 164 875 b 240 951 210 875 240 907 b 164 1028 240 996 210 1028 b 88 951 121 1028 88 996 b 164 875 88 907 121 875 "},"˛":{"ha":339,"x_min":0,"x_max":0,"o":"m 136 -285 b 14 -174 64 -285 15 -240 b 278 43 11 -67 115 -8 l 300 0 b 71 -165 161 -49 71 -86 b 139 -229 71 -204 97 -229 b 235 -179 168 -229 206 -210 l 274 -215 b 136 -285 238 -258 182 -285 "},"˜":{"ha":554,"x_min":0,"x_max":0,"o":"m 383 819 b 260 894 328 819 292 858 b 167 963 231 929 203 963 b 89 833 121 963 89 908 l 33 833 b 168 1018 33 940 88 1018 b 289 946 224 1018 258 982 b 383 875 319 911 346 875 b 464 1006 431 875 464 929 l 519 1006 b 383 819 519 897 463 819 "},"˝":{"ha":497,"x_min":0,"x_max":0,"o":"m 33 868 l 193 1069 l 238 1035 l 76 833 m 260 868 l 419 1069 l 463 1035 l 303 833 "},"↑":{"ha":721,"x_min":0,"x_max":0,"o":"m 361 732 l 679 426 l 642 386 l 389 628 l 389 0 l 333 0 l 333 628 l 82 386 l 43 426 "},"↗":{"ha":665,"x_min":0,"x_max":0,"o":"m 579 624 l 589 182 l 533 181 l 526 531 l 82 86 l 43 125 l 486 569 l 138 576 l 139 632 "},"→":{"ha":817,"x_min":0,"x_max":0,"o":"m 429 83 l 671 335 l 43 335 l 43 390 l 671 390 l 429 643 l 469 681 l 775 363 l 469 44 "},"↘":{"ha":665,"x_min":0,"x_max":0,"o":"m 579 111 l 139 103 l 136 157 l 486 165 l 43 608 l 82 649 l 525 204 l 532 553 l 589 551 "},"↓":{"ha":721,"x_min":0,"x_max":0,"o":"m 82 325 l 333 83 l 333 711 l 389 711 l 389 83 l 642 325 l 679 285 l 361 -21 l 43 285 "},"↙":{"ha":665,"x_min":0,"x_max":0,"o":"m 133 553 l 140 204 l 583 649 l 624 608 l 179 165 l 529 157 l 526 103 l 86 111 l 78 551 "},"←":{"ha":817,"x_min":0,"x_max":0,"o":"m 43 363 l 349 681 l 389 643 l 147 390 l 775 390 l 775 335 l 147 335 l 389 83 l 349 44 "},"↖":{"ha":665,"x_min":0,"x_max":0,"o":"m 528 576 l 179 569 l 624 125 l 583 86 l 140 531 l 132 181 l 76 182 l 86 624 l 526 632 "},"↔":{"ha":1272,"x_min":0,"x_max":0,"o":"m 1231 363 l 925 44 l 885 82 l 1126 335 l 147 335 l 389 83 l 349 44 l 43 363 l 349 681 l 389 643 l 147 390 l 1126 390 l 885 642 l 925 681 "},"↕":{"ha":721,"x_min":0,"x_max":0,"o":"m 642 144 l 679 104 l 361 -201 l 43 104 l 82 144 l 333 -97 l 333 808 l 81 567 l 43 607 l 361 913 l 679 607 l 640 567 l 389 808 l 389 -97 "}}}
